<svg width="490" height="691" viewBox="0 0 490 691" fill="none" xmlns="http://www.w3.org/2000/svg">
<rect width="490" height="691" fill="white"/>
<rect x="0.5" y="0.5" width="489" height="299" fill="white"/>
<rect x="0.5" y="0.5" width="489" height="299" stroke="black"/>
<rect width="490" height="48" fill="#F6F6F6"/>
<path d="M149.759 28V19.2727H151.604V22.8736H155.349V19.2727H157.19V28H155.349V24.3949H151.604V28H149.759ZM161.635 28.1278C160.973 28.1278 160.401 27.9872 159.918 27.706C159.438 27.4219 159.067 27.027 158.805 26.5213C158.544 26.0128 158.413 25.4233 158.413 24.7528C158.413 24.0767 158.544 23.4858 158.805 22.9801C159.067 22.4716 159.438 22.0767 159.918 21.7955C160.401 21.5114 160.973 21.3693 161.635 21.3693C162.297 21.3693 162.868 21.5114 163.348 21.7955C163.831 22.0767 164.203 22.4716 164.464 22.9801C164.726 23.4858 164.857 24.0767 164.857 24.7528C164.857 25.4233 164.726 26.0128 164.464 26.5213C164.203 27.027 163.831 27.4219 163.348 27.706C162.868 27.9872 162.297 28.1278 161.635 28.1278ZM161.643 26.7216C161.945 26.7216 162.196 26.6364 162.398 26.4659C162.599 26.2926 162.751 26.0568 162.854 25.7585C162.959 25.4602 163.011 25.1207 163.011 24.7401C163.011 24.3594 162.959 24.0199 162.854 23.7216C162.751 23.4233 162.599 23.1875 162.398 23.0142C162.196 22.8409 161.945 22.7543 161.643 22.7543C161.339 22.7543 161.084 22.8409 160.876 23.0142C160.672 23.1875 160.517 23.4233 160.412 23.7216C160.31 24.0199 160.259 24.3594 160.259 24.7401C160.259 25.1207 160.31 25.4602 160.412 25.7585C160.517 26.0568 160.672 26.2926 160.876 26.4659C161.084 26.6364 161.339 26.7216 161.643 26.7216ZM166.037 28V21.4545H167.767V22.6094H167.844C167.98 22.2259 168.207 21.9233 168.526 21.7017C168.844 21.4801 169.224 21.3693 169.668 21.3693C170.116 21.3693 170.499 21.4815 170.814 21.706C171.129 21.9276 171.339 22.2287 171.445 22.6094H171.513C171.646 22.2344 171.888 21.9347 172.237 21.7102C172.589 21.483 173.006 21.3693 173.486 21.3693C174.097 21.3693 174.592 21.5639 174.973 21.9531C175.357 22.3395 175.548 22.8878 175.548 23.598V28H173.737V23.956C173.737 23.5923 173.641 23.3196 173.447 23.1378C173.254 22.956 173.013 22.8651 172.723 22.8651C172.393 22.8651 172.136 22.9702 171.952 23.1804C171.767 23.3878 171.675 23.6619 171.675 24.0028V28H169.915V23.9176C169.915 23.5966 169.822 23.3409 169.638 23.1506C169.456 22.9602 169.216 22.8651 168.918 22.8651C168.716 22.8651 168.534 22.9162 168.372 23.0185C168.213 23.1179 168.087 23.2585 167.993 23.4403C167.899 23.6193 167.852 23.8295 167.852 24.071V28H166.037ZM179.965 28.1278C179.292 28.1278 178.712 27.9915 178.227 27.7188C177.744 27.4432 177.371 27.054 177.11 26.5511C176.849 26.0455 176.718 25.4474 176.718 24.7571C176.718 24.0838 176.849 23.4929 177.11 22.9844C177.371 22.4759 177.739 22.0795 178.214 21.7955C178.691 21.5114 179.251 21.3693 179.893 21.3693C180.325 21.3693 180.727 21.4389 181.099 21.5781C181.474 21.7145 181.8 21.9205 182.079 22.196C182.36 22.4716 182.579 22.8182 182.735 23.2358C182.891 23.6506 182.969 24.1364 182.969 24.6932V25.1918H177.442V24.0668H181.261C181.261 23.8054 181.204 23.5739 181.09 23.3722C180.977 23.1705 180.819 23.0128 180.617 22.8991C180.418 22.7827 180.187 22.7244 179.923 22.7244C179.647 22.7244 179.403 22.7884 179.19 22.9162C178.979 23.0412 178.815 23.2102 178.695 23.4233C178.576 23.6335 178.515 23.8679 178.512 24.1264V25.196C178.512 25.5199 178.572 25.7997 178.691 26.0355C178.813 26.2713 178.985 26.4531 179.207 26.581C179.428 26.7088 179.691 26.7727 179.995 26.7727C180.197 26.7727 180.381 26.7443 180.549 26.6875C180.717 26.6307 180.86 26.5455 180.979 26.4318C181.099 26.3182 181.19 26.179 181.252 26.0142L182.931 26.125C182.846 26.5284 182.671 26.8807 182.407 27.1818C182.146 27.4801 181.808 27.7131 181.393 27.8807C180.981 28.0455 180.505 28.1278 179.965 28.1278ZM197.641 16.4602V30.8125H195.92V16.4602H197.641ZM216.766 28H213.673V19.2727H216.792C217.67 19.2727 218.425 19.4474 219.059 19.7969C219.692 20.1435 220.18 20.642 220.521 21.2926C220.864 21.9432 221.036 22.7216 221.036 23.6278C221.036 24.5369 220.864 25.3182 220.521 25.9716C220.18 26.625 219.69 27.1264 219.05 27.4759C218.414 27.8253 217.653 28 216.766 28ZM215.518 26.419H216.69C217.235 26.419 217.694 26.3224 218.066 26.1293C218.441 25.9332 218.722 25.6307 218.91 25.2216C219.1 24.8097 219.195 24.2784 219.195 23.6278C219.195 22.983 219.1 22.456 218.91 22.0469C218.722 21.6378 218.442 21.3366 218.07 21.1435C217.698 20.9503 217.239 20.8537 216.694 20.8537H215.518V26.419ZM225.352 28.1278C224.679 28.1278 224.099 27.9915 223.613 27.7188C223.13 27.4432 222.758 27.054 222.497 26.5511C222.235 26.0455 222.105 25.4474 222.105 24.7571C222.105 24.0838 222.235 23.4929 222.497 22.9844C222.758 22.4759 223.126 22.0795 223.6 21.7955C224.078 21.5114 224.637 21.3693 225.279 21.3693C225.711 21.3693 226.113 21.4389 226.485 21.5781C226.86 21.7145 227.187 21.9205 227.466 22.196C227.747 22.4716 227.966 22.8182 228.122 23.2358C228.278 23.6506 228.356 24.1364 228.356 24.6932V25.1918H222.829V24.0668H226.647C226.647 23.8054 226.591 23.5739 226.477 23.3722C226.363 23.1705 226.206 23.0128 226.004 22.8991C225.805 22.7827 225.574 22.7244 225.309 22.7244C225.034 22.7244 224.789 22.7884 224.576 22.9162C224.366 23.0412 224.201 23.2102 224.082 23.4233C223.963 23.6335 223.902 23.8679 223.899 24.1264V25.196C223.899 25.5199 223.958 25.7997 224.078 26.0355C224.2 26.2713 224.372 26.4531 224.593 26.581C224.815 26.7088 225.078 26.7727 225.382 26.7727C225.583 26.7727 225.768 26.7443 225.936 26.6875C226.103 26.6307 226.247 26.5455 226.366 26.4318C226.485 26.3182 226.576 26.179 226.639 26.0142L228.318 26.125C228.233 26.5284 228.058 26.8807 227.794 27.1818C227.532 27.4801 227.194 27.7131 226.779 27.8807C226.368 28.0455 225.892 28.1278 225.352 28.1278ZM229.541 28V21.4545H231.271V22.6094H231.348C231.484 22.2259 231.711 21.9233 232.029 21.7017C232.348 21.4801 232.728 21.3693 233.172 21.3693C233.62 21.3693 234.002 21.4815 234.318 21.706C234.633 21.9276 234.843 22.2287 234.949 22.6094H235.017C235.15 22.2344 235.392 21.9347 235.741 21.7102C236.093 21.483 236.51 21.3693 236.99 21.3693C237.6 21.3693 238.096 21.5639 238.477 21.9531C238.86 22.3395 239.052 22.8878 239.052 23.598V28H237.241V23.956C237.241 23.5923 237.145 23.3196 236.951 23.1378C236.758 22.956 236.517 22.8651 236.227 22.8651C235.897 22.8651 235.64 22.9702 235.456 23.1804C235.271 23.3878 235.179 23.6619 235.179 24.0028V28H233.419V23.9176C233.419 23.5966 233.326 23.3409 233.142 23.1506C232.96 22.9602 232.72 22.8651 232.422 22.8651C232.22 22.8651 232.038 22.9162 231.876 23.0185C231.717 23.1179 231.591 23.2585 231.497 23.4403C231.403 23.6193 231.356 23.8295 231.356 24.071V28H229.541ZM243.444 28.1278C242.782 28.1278 242.209 27.9872 241.726 27.706C241.246 27.4219 240.875 27.027 240.614 26.5213C240.353 26.0128 240.222 25.4233 240.222 24.7528C240.222 24.0767 240.353 23.4858 240.614 22.9801C240.875 22.4716 241.246 22.0767 241.726 21.7955C242.209 21.5114 242.782 21.3693 243.444 21.3693C244.105 21.3693 244.676 21.5114 245.157 21.7955C245.64 22.0767 246.012 22.4716 246.273 22.9801C246.534 23.4858 246.665 24.0767 246.665 24.7528C246.665 25.4233 246.534 26.0128 246.273 26.5213C246.012 27.027 245.64 27.4219 245.157 27.706C244.676 27.9872 244.105 28.1278 243.444 28.1278ZM243.452 26.7216C243.753 26.7216 244.005 26.6364 244.206 26.4659C244.408 26.2926 244.56 26.0568 244.662 25.7585C244.767 25.4602 244.82 25.1207 244.82 24.7401C244.82 24.3594 244.767 24.0199 244.662 23.7216C244.56 23.4233 244.408 23.1875 244.206 23.0142C244.005 22.8409 243.753 22.7543 243.452 22.7543C243.148 22.7543 242.892 22.8409 242.685 23.0142C242.48 23.1875 242.326 23.4233 242.221 23.7216C242.118 24.0199 242.067 24.3594 242.067 24.7401C242.067 25.1207 242.118 25.4602 242.221 25.7585C242.326 26.0568 242.48 26.2926 242.685 26.4659C242.892 26.6364 243.148 26.7216 243.452 26.7216ZM261.333 16.4602V30.8125H259.611V16.4602H261.333ZM280.458 28H277.364V19.2727H280.483C281.361 19.2727 282.117 19.4474 282.75 19.7969C283.384 20.1435 283.871 20.642 284.212 21.2926C284.556 21.9432 284.728 22.7216 284.728 23.6278C284.728 24.5369 284.556 25.3182 284.212 25.9716C283.871 26.625 283.381 27.1264 282.742 27.4759C282.105 27.8253 281.344 28 280.458 28ZM279.209 26.419H280.381C280.926 26.419 281.385 26.3224 281.757 26.1293C282.132 25.9332 282.414 25.6307 282.601 25.2216C282.792 24.8097 282.887 24.2784 282.887 23.6278C282.887 22.983 282.792 22.456 282.601 22.0469C282.414 21.6378 282.134 21.3366 281.762 21.1435C281.39 20.9503 280.931 20.8537 280.385 20.8537H279.209V26.419ZM287.927 28.1236C287.509 28.1236 287.137 28.0511 286.81 27.9062C286.484 27.7585 286.225 27.5412 286.035 27.2543C285.847 26.9645 285.754 26.6037 285.754 26.1719C285.754 25.8082 285.82 25.5028 285.954 25.2557C286.087 25.0085 286.269 24.8097 286.499 24.6591C286.729 24.5085 286.991 24.3949 287.283 24.3182C287.579 24.2415 287.888 24.1875 288.212 24.1562C288.593 24.1165 288.9 24.0795 289.133 24.0455C289.366 24.0085 289.535 23.9545 289.64 23.8835C289.745 23.8125 289.798 23.7074 289.798 23.5682V23.5426C289.798 23.2727 289.712 23.0639 289.542 22.9162C289.374 22.7685 289.136 22.6946 288.826 22.6946C288.499 22.6946 288.239 22.767 288.046 22.9119C287.853 23.054 287.725 23.233 287.663 23.4489L285.984 23.3125C286.069 22.9148 286.237 22.571 286.487 22.2812C286.737 21.9886 287.059 21.7642 287.454 21.608C287.852 21.4489 288.312 21.3693 288.835 21.3693C289.198 21.3693 289.546 21.4119 289.879 21.4972C290.214 21.5824 290.511 21.7145 290.769 21.8935C291.031 22.0724 291.237 22.3026 291.387 22.5838C291.538 22.8622 291.613 23.196 291.613 23.5852V28H289.891V27.0923H289.84C289.735 27.2969 289.594 27.4773 289.418 27.6335C289.242 27.7869 289.031 27.9077 288.783 27.9957C288.536 28.081 288.251 28.1236 287.927 28.1236ZM288.447 26.8707C288.714 26.8707 288.95 26.8182 289.154 26.7131C289.359 26.6051 289.519 26.4602 289.636 26.2784C289.752 26.0966 289.81 25.8906 289.81 25.6605V24.9659C289.754 25.0028 289.675 25.0369 289.576 25.0682C289.479 25.0966 289.37 25.1236 289.248 25.1491C289.126 25.1719 289.004 25.1932 288.881 25.2131C288.759 25.2301 288.648 25.2457 288.549 25.2599C288.336 25.2912 288.15 25.3409 287.991 25.4091C287.832 25.4773 287.708 25.5696 287.62 25.6861C287.532 25.7997 287.488 25.9418 287.488 26.1122C287.488 26.3594 287.577 26.5483 287.756 26.679C287.938 26.8068 288.168 26.8707 288.447 26.8707ZM298.467 23.321L296.805 23.4233C296.777 23.2812 296.716 23.1534 296.622 23.0398C296.528 22.9233 296.405 22.831 296.251 22.7628C296.101 22.6918 295.92 22.6562 295.71 22.6562C295.429 22.6562 295.192 22.7159 294.999 22.8352C294.805 22.9517 294.709 23.108 294.709 23.304C294.709 23.4602 294.771 23.5923 294.896 23.7003C295.021 23.8082 295.236 23.8949 295.54 23.9602L296.724 24.1989C297.361 24.3295 297.835 24.5398 298.148 24.8295C298.46 25.1193 298.616 25.5 298.616 25.9716C298.616 26.4006 298.49 26.777 298.237 27.1009C297.987 27.4247 297.643 27.6776 297.206 27.8594C296.771 28.0384 296.27 28.1278 295.702 28.1278C294.835 28.1278 294.145 27.9474 293.631 27.5866C293.119 27.223 292.82 26.7287 292.732 26.1037L294.517 26.0099C294.571 26.2741 294.702 26.4759 294.909 26.6151C295.116 26.7514 295.382 26.8196 295.706 26.8196C296.024 26.8196 296.28 26.7585 296.473 26.6364C296.669 26.5114 296.768 26.3509 296.771 26.1548C296.768 25.9901 296.699 25.8551 296.562 25.75C296.426 25.642 296.216 25.5597 295.932 25.5028L294.798 25.277C294.159 25.1491 293.683 24.9276 293.371 24.6122C293.061 24.2969 292.906 23.8949 292.906 23.4062C292.906 22.9858 293.02 22.6236 293.247 22.3196C293.477 22.0156 293.8 21.7812 294.214 21.6165C294.632 21.4517 295.121 21.3693 295.68 21.3693C296.507 21.3693 297.158 21.544 297.632 21.8935C298.109 22.2429 298.388 22.7187 298.467 23.321ZM301.575 24.2159V28H299.76V19.2727H301.524V22.6094H301.6C301.748 22.223 301.987 21.9205 302.316 21.7017C302.646 21.4801 303.059 21.3693 303.556 21.3693C304.011 21.3693 304.407 21.4688 304.745 21.6676C305.086 21.8636 305.35 22.1463 305.538 22.5156C305.728 22.8821 305.822 23.321 305.819 23.8324V28H304.004V24.1562C304.007 23.7528 303.904 23.4389 303.697 23.2145C303.493 22.9901 303.206 22.8778 302.836 22.8778C302.589 22.8778 302.37 22.9304 302.18 23.0355C301.993 23.1406 301.845 23.294 301.737 23.4957C301.632 23.6946 301.578 23.9347 301.575 24.2159ZM307.282 28V19.2727H309.097V22.554H309.153C309.232 22.3778 309.347 22.1989 309.498 22.017C309.651 21.8324 309.85 21.679 310.094 21.5568C310.342 21.4318 310.648 21.3693 311.015 21.3693C311.492 21.3693 311.933 21.4943 312.336 21.7443C312.739 21.9915 313.062 22.3651 313.303 22.8651C313.545 23.3622 313.665 23.9858 313.665 24.7358C313.665 25.4659 313.548 26.0824 313.312 26.5852C313.079 27.0852 312.761 27.4645 312.357 27.723C311.957 27.9787 311.508 28.1065 311.011 28.1065C310.658 28.1065 310.359 28.0483 310.112 27.9318C309.867 27.8153 309.667 27.669 309.511 27.4929C309.354 27.3139 309.235 27.1335 309.153 26.9517H309.072V28H307.282ZM309.059 24.7273C309.059 25.1165 309.113 25.456 309.221 25.7457C309.329 26.0355 309.485 26.2614 309.69 26.4233C309.894 26.5824 310.143 26.6619 310.435 26.6619C310.731 26.6619 310.981 26.581 311.185 26.419C311.39 26.2543 311.545 26.027 311.65 25.7372C311.758 25.4446 311.812 25.108 311.812 24.7273C311.812 24.3494 311.759 24.017 311.654 23.7301C311.549 23.4432 311.394 23.2187 311.19 23.0568C310.985 22.8949 310.734 22.8139 310.435 22.8139C310.14 22.8139 309.89 22.892 309.685 23.0483C309.484 23.2045 309.329 23.4261 309.221 23.7131C309.113 24 309.059 24.3381 309.059 24.7273ZM317.834 28.1278C317.172 28.1278 316.6 27.9872 316.117 27.706C315.637 27.4219 315.266 27.027 315.005 26.5213C314.743 26.0128 314.613 25.4233 314.613 24.7528C314.613 24.0767 314.743 23.4858 315.005 22.9801C315.266 22.4716 315.637 22.0767 316.117 21.7955C316.6 21.5114 317.172 21.3693 317.834 21.3693C318.496 21.3693 319.067 21.5114 319.547 21.7955C320.03 22.0767 320.402 22.4716 320.664 22.9801C320.925 23.4858 321.056 24.0767 321.056 24.7528C321.056 25.4233 320.925 26.0128 320.664 26.5213C320.402 27.027 320.03 27.4219 319.547 27.706C319.067 27.9872 318.496 28.1278 317.834 28.1278ZM317.843 26.7216C318.144 26.7216 318.395 26.6364 318.597 26.4659C318.799 26.2926 318.951 26.0568 319.053 25.7585C319.158 25.4602 319.211 25.1207 319.211 24.7401C319.211 24.3594 319.158 24.0199 319.053 23.7216C318.951 23.4233 318.799 23.1875 318.597 23.0142C318.395 22.8409 318.144 22.7543 317.843 22.7543C317.539 22.7543 317.283 22.8409 317.076 23.0142C316.871 23.1875 316.716 23.4233 316.611 23.7216C316.509 24.0199 316.458 24.3594 316.458 24.7401C316.458 25.1207 316.509 25.4602 316.611 25.7585C316.716 26.0568 316.871 26.2926 317.076 26.4659C317.283 26.6364 317.539 26.7216 317.843 26.7216ZM324.103 28.1236C323.685 28.1236 323.313 28.0511 322.986 27.9062C322.659 27.7585 322.401 27.5412 322.211 27.2543C322.023 26.9645 321.929 26.6037 321.929 26.1719C321.929 25.8082 321.996 25.5028 322.13 25.2557C322.263 25.0085 322.445 24.8097 322.675 24.6591C322.905 24.5085 323.167 24.3949 323.459 24.3182C323.755 24.2415 324.064 24.1875 324.388 24.1562C324.769 24.1165 325.076 24.0795 325.309 24.0455C325.542 24.0085 325.711 23.9545 325.816 23.8835C325.921 23.8125 325.973 23.7074 325.973 23.5682V23.5426C325.973 23.2727 325.888 23.0639 325.718 22.9162C325.55 22.7685 325.311 22.6946 325.002 22.6946C324.675 22.6946 324.415 22.767 324.222 22.9119C324.029 23.054 323.901 23.233 323.838 23.4489L322.159 23.3125C322.245 22.9148 322.412 22.571 322.662 22.2812C322.912 21.9886 323.235 21.7642 323.63 21.608C324.027 21.4489 324.488 21.3693 325.01 21.3693C325.374 21.3693 325.722 21.4119 326.054 21.4972C326.39 21.5824 326.686 21.7145 326.945 21.8935C327.206 22.0724 327.412 22.3026 327.563 22.5838C327.713 22.8622 327.789 23.196 327.789 23.5852V28H326.067V27.0923H326.016C325.911 27.2969 325.77 27.4773 325.594 27.6335C325.418 27.7869 325.206 27.9077 324.959 27.9957C324.712 28.081 324.426 28.1236 324.103 28.1236ZM324.623 26.8707C324.89 26.8707 325.125 26.8182 325.33 26.7131C325.534 26.6051 325.695 26.4602 325.811 26.2784C325.928 26.0966 325.986 25.8906 325.986 25.6605V24.9659C325.929 25.0028 325.851 25.0369 325.752 25.0682C325.655 25.0966 325.546 25.1236 325.424 25.1491C325.301 25.1719 325.179 25.1932 325.057 25.2131C324.935 25.2301 324.824 25.2457 324.725 25.2599C324.512 25.2912 324.326 25.3409 324.167 25.4091C324.007 25.4773 323.884 25.5696 323.796 25.6861C323.708 25.7997 323.664 25.9418 323.664 26.1122C323.664 26.3594 323.753 26.5483 323.932 26.679C324.114 26.8068 324.344 26.8707 324.623 26.8707ZM329.197 28V21.4545H330.957V22.5966H331.025C331.145 22.1903 331.345 21.8835 331.626 21.6761C331.907 21.4659 332.231 21.3608 332.598 21.3608C332.689 21.3608 332.787 21.3665 332.892 21.3778C332.997 21.3892 333.089 21.4048 333.169 21.4247V23.0355C333.083 23.0099 332.966 22.9872 332.815 22.9673C332.664 22.9474 332.527 22.9375 332.402 22.9375C332.135 22.9375 331.896 22.9957 331.686 23.1122C331.478 23.2259 331.314 23.3849 331.191 23.5895C331.072 23.794 331.012 24.0298 331.012 24.2969V28H329.197ZM336.214 28.1065C335.717 28.1065 335.267 27.9787 334.864 27.723C334.463 27.4645 334.145 27.0852 333.909 26.5852C333.676 26.0824 333.56 25.4659 333.56 24.7358C333.56 23.9858 333.68 23.3622 333.922 22.8651C334.163 22.3651 334.484 21.9915 334.885 21.7443C335.288 21.4943 335.73 21.3693 336.21 21.3693C336.577 21.3693 336.882 21.4318 337.126 21.5568C337.374 21.679 337.572 21.8324 337.723 22.017C337.876 22.1989 337.993 22.3778 338.072 22.554H338.128V19.2727H339.939V28H338.149V26.9517H338.072C337.987 27.1335 337.866 27.3139 337.71 27.4929C337.557 27.669 337.357 27.8153 337.109 27.9318C336.865 28.0483 336.567 28.1065 336.214 28.1065ZM336.79 26.6619C337.082 26.6619 337.33 26.5824 337.531 26.4233C337.736 26.2614 337.892 26.0355 338 25.7457C338.111 25.456 338.166 25.1165 338.166 24.7273C338.166 24.3381 338.112 24 338.004 23.7131C337.896 23.4261 337.74 23.2045 337.536 23.0483C337.331 22.892 337.082 22.8139 336.79 22.8139C336.491 22.8139 336.24 22.8949 336.036 23.0568C335.831 23.2187 335.676 23.4432 335.571 23.7301C335.466 24.017 335.413 24.3494 335.413 24.7273C335.413 25.108 335.466 25.4446 335.571 25.7372C335.679 26.027 335.834 26.2543 336.036 26.419C336.24 26.581 336.491 26.6619 336.79 26.6619Z" fill="black"/>
<rect x="398" y="11" width="83" height="25" fill="#D9D9D9"/>
<path d="M422.493 21.7827C422.459 21.4389 422.313 21.1719 422.054 20.9815C421.795 20.7912 421.445 20.696 421.001 20.696C420.7 20.696 420.446 20.7386 420.239 20.8239C420.031 20.9062 419.872 21.0213 419.761 21.169C419.653 21.3168 419.599 21.4844 419.599 21.6719C419.594 21.8281 419.626 21.9645 419.697 22.081C419.771 22.1974 419.872 22.2983 420 22.3835C420.128 22.4659 420.276 22.5384 420.443 22.6009C420.611 22.6605 420.79 22.7116 420.98 22.7543L421.764 22.9418C422.145 23.027 422.494 23.1406 422.812 23.2827C423.131 23.4247 423.406 23.5994 423.639 23.8068C423.872 24.0142 424.053 24.2585 424.18 24.5398C424.311 24.821 424.378 25.1435 424.381 25.5071C424.378 26.0412 424.241 26.5043 423.972 26.8963C423.705 27.2855 423.318 27.5881 422.812 27.804C422.31 28.017 421.703 28.1236 420.993 28.1236C420.288 28.1236 419.675 28.0156 419.152 27.7997C418.632 27.5838 418.226 27.2642 417.933 26.8409C417.643 26.4148 417.491 25.8878 417.477 25.2599H419.263C419.283 25.5526 419.366 25.7969 419.514 25.9929C419.665 26.1861 419.865 26.3324 420.115 26.4318C420.368 26.5284 420.653 26.5767 420.972 26.5767C421.284 26.5767 421.555 26.5312 421.786 26.4403C422.018 26.3494 422.199 26.223 422.327 26.0611C422.455 25.8991 422.518 25.7131 422.518 25.5028C422.518 25.3068 422.46 25.142 422.344 25.0085C422.23 24.875 422.063 24.7614 421.841 24.6676C421.622 24.5739 421.354 24.4886 421.036 24.4119L420.085 24.1733C419.349 23.9943 418.768 23.7145 418.342 23.3338C417.916 22.9531 417.705 22.4403 417.707 21.7955C417.705 21.267 417.845 20.8054 418.129 20.4105C418.416 20.0156 418.81 19.7074 419.31 19.4858C419.81 19.2642 420.378 19.1534 421.014 19.1534C421.662 19.1534 422.227 19.2642 422.71 19.4858C423.196 19.7074 423.574 20.0156 423.844 20.4105C424.114 20.8054 424.253 21.2628 424.261 21.7827H422.493ZM425.588 28V21.4545H427.403V28H425.588ZM426.5 20.6108C426.23 20.6108 425.998 20.5213 425.805 20.3423C425.615 20.1605 425.52 19.9432 425.52 19.6903C425.52 19.4403 425.615 19.2259 425.805 19.0469C425.998 18.8651 426.23 18.7741 426.5 18.7741C426.77 18.7741 427 18.8651 427.19 19.0469C427.383 19.2259 427.48 19.4403 427.48 19.6903C427.48 19.9432 427.383 20.1605 427.19 20.3423C427 20.5213 426.77 20.6108 426.5 20.6108ZM431.806 30.5909C431.218 30.5909 430.714 30.5099 430.293 30.348C429.876 30.1889 429.543 29.9716 429.296 29.696C429.049 29.4205 428.888 29.1108 428.815 28.767L430.494 28.5412C430.545 28.6719 430.626 28.794 430.737 28.9077C430.847 29.0213 430.994 29.1122 431.175 29.1804C431.36 29.2514 431.585 29.2869 431.849 29.2869C432.244 29.2869 432.569 29.1903 432.825 28.9972C433.083 28.8068 433.212 28.4872 433.212 28.0384V26.8409H433.136C433.056 27.0227 432.937 27.1946 432.778 27.3565C432.619 27.5185 432.414 27.6506 432.164 27.7528C431.914 27.8551 431.616 27.9062 431.269 27.9062C430.778 27.9062 430.33 27.7926 429.927 27.5653C429.526 27.3352 429.207 26.9844 428.968 26.5128C428.732 26.0384 428.614 25.4389 428.614 24.7145C428.614 23.973 428.735 23.3537 428.977 22.8565C429.218 22.3594 429.539 21.9872 429.94 21.7401C430.343 21.4929 430.785 21.3693 431.265 21.3693C431.631 21.3693 431.938 21.4318 432.185 21.5568C432.433 21.679 432.631 21.8324 432.782 22.017C432.935 22.1989 433.053 22.3778 433.136 22.554H433.204V21.4545H435.006V28.0639C435.006 28.6207 434.87 29.0866 434.597 29.4616C434.325 29.8366 433.947 30.1179 433.464 30.3054C432.984 30.4957 432.431 30.5909 431.806 30.5909ZM431.844 26.5426C432.137 26.5426 432.384 26.4702 432.586 26.3253C432.79 26.1776 432.947 25.9673 433.055 25.6946C433.165 25.419 433.221 25.0895 433.221 24.706C433.221 24.3224 433.167 23.9901 433.059 23.7088C432.951 23.4247 432.795 23.2045 432.59 23.0483C432.386 22.892 432.137 22.8139 431.844 22.8139C431.546 22.8139 431.295 22.8949 431.09 23.0568C430.886 23.2159 430.731 23.4375 430.626 23.7216C430.521 24.0057 430.468 24.3338 430.468 24.706C430.468 25.0838 430.521 25.4105 430.626 25.6861C430.734 25.9588 430.888 26.1705 431.09 26.321C431.295 26.4687 431.546 26.5426 431.844 26.5426ZM438.266 24.2159V28H436.451V21.4545H438.181V22.6094H438.258C438.403 22.2287 438.646 21.9276 438.987 21.706C439.327 21.4815 439.741 21.3693 440.227 21.3693C440.681 21.3693 441.077 21.4688 441.415 21.6676C441.754 21.8665 442.016 22.1506 442.204 22.5199C442.391 22.8864 442.485 23.3239 442.485 23.8324V28H440.67V24.1562C440.673 23.7557 440.57 23.4432 440.363 23.2188C440.156 22.9915 439.87 22.8778 439.506 22.8778C439.262 22.8778 439.046 22.9304 438.859 23.0355C438.674 23.1406 438.529 23.294 438.424 23.4957C438.322 23.6946 438.269 23.9347 438.266 24.2159ZM452.118 19.2727H453.963V24.9403C453.963 25.5767 453.811 26.1335 453.507 26.6108C453.206 27.0881 452.784 27.4602 452.241 27.7273C451.699 27.9915 451.067 28.1236 450.345 28.1236C449.621 28.1236 448.987 27.9915 448.445 27.7273C447.902 27.4602 447.48 27.0881 447.179 26.6108C446.878 26.1335 446.727 25.5767 446.727 24.9403V19.2727H448.572V24.7827C448.572 25.1151 448.645 25.4105 448.79 25.669C448.938 25.9276 449.145 26.1307 449.412 26.2784C449.679 26.4261 449.99 26.5 450.345 26.5C450.703 26.5 451.014 26.4261 451.278 26.2784C451.545 26.1307 451.751 25.9276 451.896 25.669C452.044 25.4105 452.118 25.1151 452.118 24.7827V19.2727ZM455.447 30.4545V21.4545H457.237V22.554H457.318C457.397 22.3778 457.512 22.1989 457.663 22.017C457.816 21.8324 458.015 21.679 458.26 21.5568C458.507 21.4318 458.814 21.3693 459.18 21.3693C459.657 21.3693 460.098 21.4943 460.501 21.7443C460.904 21.9915 461.227 22.3651 461.468 22.8651C461.71 23.3622 461.831 23.9858 461.831 24.7358C461.831 25.4659 461.713 26.0824 461.477 26.5852C461.244 27.0852 460.926 27.4645 460.522 27.723C460.122 27.9787 459.673 28.1065 459.176 28.1065C458.824 28.1065 458.524 28.0483 458.277 27.9318C458.032 27.8153 457.832 27.669 457.676 27.4929C457.52 27.3139 457.4 27.1335 457.318 26.9517H457.262V30.4545H455.447ZM457.224 24.7273C457.224 25.1165 457.278 25.456 457.386 25.7457C457.494 26.0355 457.65 26.2614 457.855 26.4233C458.059 26.5824 458.308 26.6619 458.6 26.6619C458.896 26.6619 459.146 26.581 459.35 26.419C459.555 26.2543 459.71 26.027 459.815 25.7372C459.923 25.4446 459.977 25.108 459.977 24.7273C459.977 24.3494 459.924 24.017 459.819 23.7301C459.714 23.4432 459.559 23.2187 459.355 23.0568C459.15 22.8949 458.899 22.8139 458.6 22.8139C458.305 22.8139 458.055 22.892 457.85 23.0483C457.649 23.2045 457.494 23.4261 457.386 23.7131C457.278 24 457.224 24.3381 457.224 24.7273Z" fill="black"/>
<path d="M33.5879 227H25.5083V200.818H33.9458C36.4856 200.818 38.6589 201.342 40.4657 202.391C42.2726 203.43 43.6575 204.926 44.6206 206.878C45.5836 208.821 46.0652 211.148 46.0652 213.858C46.0652 216.585 45.5794 218.933 44.6078 220.902C43.6362 222.862 42.2214 224.371 40.3635 225.428C38.5055 226.476 36.247 227 33.5879 227ZM28.6788 224.188H33.3833C35.5481 224.188 37.3422 223.77 38.7654 222.935C40.1887 222.099 41.2498 220.911 41.9487 219.368C42.6475 217.825 42.997 215.989 42.997 213.858C42.997 211.744 42.6518 209.925 41.9615 208.399C41.2711 206.865 40.2399 205.689 38.8677 204.871C37.4956 204.044 35.7868 203.631 33.7413 203.631H28.6788V224.188ZM58.9515 227.409C57.1788 227.409 55.6234 226.987 54.2853 226.143C52.9558 225.3 51.916 224.119 51.166 222.602C50.4245 221.085 50.0538 219.312 50.0538 217.284C50.0538 215.239 50.4245 213.453 51.166 211.928C51.916 210.402 52.9558 209.217 54.2853 208.374C55.6234 207.53 57.1788 207.108 58.9515 207.108C60.7243 207.108 62.2754 207.53 63.6049 208.374C64.943 209.217 65.9828 210.402 66.7243 211.928C67.4743 213.453 67.8493 215.239 67.8493 217.284C67.8493 219.312 67.4743 221.085 66.7243 222.602C65.9828 224.119 64.943 225.3 63.6049 226.143C62.2754 226.987 60.7243 227.409 58.9515 227.409ZM58.9515 224.699C60.2981 224.699 61.4061 224.354 62.2754 223.663C63.1447 222.973 63.7882 222.065 64.2058 220.94C64.6234 219.815 64.8322 218.597 64.8322 217.284C64.8322 215.972 64.6234 214.749 64.2058 213.615C63.7882 212.482 63.1447 211.565 62.2754 210.866C61.4061 210.168 60.2981 209.818 58.9515 209.818C57.6049 209.818 56.497 210.168 55.6277 210.866C54.7583 211.565 54.1149 212.482 53.6973 213.615C53.2797 214.749 53.0708 215.972 53.0708 217.284C53.0708 218.597 53.2797 219.815 53.6973 220.94C54.1149 222.065 54.7583 222.973 55.6277 223.663C56.497 224.354 57.6049 224.699 58.9515 224.699ZM76.2356 227L70.2527 207.364H73.4231L77.6674 222.398H77.872L82.0652 207.364H85.2868L89.4288 222.347H89.6333L93.8777 207.364H97.0481L91.0652 227H88.0993L83.8038 211.915H83.497L79.2015 227H76.2356ZM104.054 215.188V227H101.037V207.364H103.952V210.432H104.207C104.667 209.435 105.366 208.634 106.304 208.028C107.241 207.415 108.452 207.108 109.934 207.108C111.264 207.108 112.427 207.381 113.425 207.926C114.422 208.463 115.197 209.281 115.751 210.381C116.305 211.472 116.582 212.852 116.582 214.523V227H113.565V214.727C113.565 213.185 113.165 211.983 112.363 211.122C111.562 210.253 110.463 209.818 109.065 209.818C108.102 209.818 107.241 210.027 106.483 210.445C105.733 210.862 105.14 211.472 104.706 212.273C104.271 213.074 104.054 214.045 104.054 215.188ZM125.112 200.818V227H122.095V200.818H125.112ZM138.616 227.409C136.843 227.409 135.287 226.987 133.949 226.143C132.62 225.3 131.58 224.119 130.83 222.602C130.089 221.085 129.718 219.312 129.718 217.284C129.718 215.239 130.089 213.453 130.83 211.928C131.58 210.402 132.62 209.217 133.949 208.374C135.287 207.53 136.843 207.108 138.616 207.108C140.388 207.108 141.939 207.53 143.269 208.374C144.607 209.217 145.647 210.402 146.388 211.928C147.138 213.453 147.513 215.239 147.513 217.284C147.513 219.312 147.138 221.085 146.388 222.602C145.647 224.119 144.607 225.3 143.269 226.143C141.939 226.987 140.388 227.409 138.616 227.409ZM138.616 224.699C139.962 224.699 141.07 224.354 141.939 223.663C142.809 222.973 143.452 222.065 143.87 220.94C144.287 219.815 144.496 218.597 144.496 217.284C144.496 215.972 144.287 214.749 143.87 213.615C143.452 212.482 142.809 211.565 141.939 210.866C141.07 210.168 139.962 209.818 138.616 209.818C137.269 209.818 136.161 210.168 135.292 210.866C134.422 211.565 133.779 212.482 133.361 213.615C132.944 214.749 132.735 215.972 132.735 217.284C132.735 218.597 132.944 219.815 133.361 220.94C133.779 222.065 134.422 222.973 135.292 223.663C136.161 224.354 137.269 224.699 138.616 224.699ZM157.897 227.46C156.653 227.46 155.524 227.226 154.509 226.757C153.495 226.28 152.69 225.594 152.093 224.699C151.497 223.795 151.198 222.705 151.198 221.426C151.198 220.301 151.42 219.389 151.863 218.69C152.306 217.983 152.899 217.429 153.64 217.028C154.382 216.628 155.2 216.33 156.095 216.134C156.998 215.929 157.906 215.767 158.818 215.648C160.011 215.494 160.978 215.379 161.72 215.303C162.47 215.217 163.015 215.077 163.356 214.881C163.705 214.685 163.88 214.344 163.88 213.858V213.756C163.88 212.494 163.535 211.514 162.845 210.815C162.163 210.116 161.127 209.767 159.738 209.767C158.298 209.767 157.169 210.082 156.35 210.713C155.532 211.344 154.957 212.017 154.624 212.733L151.761 211.71C152.272 210.517 152.954 209.588 153.806 208.923C154.667 208.25 155.605 207.781 156.619 207.517C157.642 207.244 158.647 207.108 159.636 207.108C160.267 207.108 160.991 207.185 161.809 207.338C162.636 207.483 163.433 207.786 164.2 208.246C164.975 208.706 165.619 209.401 166.13 210.33C166.642 211.259 166.897 212.503 166.897 214.062V227H163.88V224.341H163.727C163.522 224.767 163.181 225.223 162.704 225.709C162.227 226.195 161.592 226.608 160.799 226.949C160.007 227.29 159.039 227.46 157.897 227.46ZM158.357 224.75C159.551 224.75 160.556 224.516 161.374 224.047C162.201 223.578 162.823 222.973 163.241 222.232C163.667 221.49 163.88 220.71 163.88 219.892V217.131C163.752 217.284 163.471 217.425 163.036 217.553C162.61 217.672 162.116 217.778 161.553 217.872C160.999 217.957 160.458 218.034 159.93 218.102C159.41 218.162 158.988 218.213 158.664 218.256C157.88 218.358 157.147 218.524 156.465 218.754C155.792 218.976 155.247 219.312 154.829 219.764C154.42 220.207 154.215 220.812 154.215 221.58C154.215 222.628 154.603 223.42 155.379 223.957C156.163 224.486 157.156 224.75 158.357 224.75ZM179.819 227.409C178.182 227.409 176.738 226.996 175.485 226.169C174.232 225.334 173.252 224.158 172.545 222.641C171.837 221.115 171.483 219.312 171.483 217.233C171.483 215.17 171.837 213.381 172.545 211.864C173.252 210.347 174.236 209.175 175.498 208.348C176.759 207.521 178.216 207.108 179.87 207.108C181.148 207.108 182.158 207.321 182.9 207.747C183.65 208.165 184.221 208.642 184.613 209.179C185.013 209.707 185.324 210.142 185.546 210.483H185.802V200.818H188.819V227H185.904V223.983H185.546C185.324 224.341 185.009 224.793 184.6 225.338C184.191 225.875 183.607 226.357 182.849 226.783C182.09 227.2 181.08 227.409 179.819 227.409ZM180.228 224.699C181.438 224.699 182.461 224.384 183.296 223.753C184.131 223.114 184.766 222.232 185.201 221.107C185.635 219.973 185.853 218.665 185.853 217.182C185.853 215.716 185.64 214.433 185.214 213.334C184.787 212.226 184.157 211.365 183.322 210.751C182.486 210.129 181.455 209.818 180.228 209.818C178.949 209.818 177.884 210.146 177.032 210.803C176.188 211.45 175.553 212.332 175.127 213.449C174.709 214.557 174.501 215.801 174.501 217.182C174.501 218.58 174.714 219.849 175.14 220.991C175.574 222.125 176.214 223.028 177.057 223.702C177.91 224.366 178.966 224.699 180.228 224.699ZM213.633 207.364V209.92H203.047V207.364H213.633ZM206.218 227V204.653C206.218 203.528 206.482 202.591 207.01 201.841C207.539 201.091 208.225 200.528 209.069 200.153C209.912 199.778 210.803 199.591 211.741 199.591C212.482 199.591 213.087 199.651 213.556 199.77C214.025 199.889 214.374 200 214.604 200.102L213.735 202.71C213.581 202.659 213.368 202.595 213.096 202.518C212.831 202.442 212.482 202.403 212.047 202.403C211.05 202.403 210.33 202.655 209.887 203.158C209.452 203.661 209.235 204.398 209.235 205.369V227H206.218ZM217.861 227V207.364H220.776V210.33H220.98C221.338 209.358 221.986 208.57 222.923 207.964C223.861 207.359 224.918 207.057 226.094 207.057C226.316 207.057 226.593 207.061 226.925 207.07C227.257 207.078 227.509 207.091 227.679 207.108V210.176C227.577 210.151 227.343 210.112 226.976 210.061C226.618 210.001 226.239 209.972 225.838 209.972C224.884 209.972 224.031 210.172 223.281 210.572C222.54 210.964 221.952 211.51 221.517 212.209C221.091 212.899 220.878 213.687 220.878 214.574V227H217.861ZM238.891 227.409C236.999 227.409 235.367 226.991 233.994 226.156C232.631 225.312 231.578 224.136 230.837 222.628C230.104 221.111 229.737 219.347 229.737 217.335C229.737 215.324 230.104 213.551 230.837 212.017C231.578 210.474 232.61 209.273 233.931 208.412C235.26 207.543 236.811 207.108 238.584 207.108C239.607 207.108 240.617 207.278 241.614 207.619C242.611 207.96 243.519 208.514 244.337 209.281C245.155 210.04 245.807 211.045 246.293 212.298C246.779 213.551 247.021 215.094 247.021 216.926V218.205H231.885V215.597H243.953C243.953 214.489 243.732 213.5 243.289 212.631C242.854 211.761 242.232 211.075 241.422 210.572C240.621 210.07 239.675 209.818 238.584 209.818C237.382 209.818 236.343 210.116 235.465 210.713C234.595 211.301 233.926 212.068 233.458 213.014C232.989 213.96 232.754 214.974 232.754 216.057V217.795C232.754 219.278 233.01 220.536 233.521 221.567C234.041 222.589 234.762 223.369 235.682 223.906C236.602 224.435 237.672 224.699 238.891 224.699C239.683 224.699 240.399 224.588 241.039 224.366C241.686 224.136 242.244 223.795 242.713 223.344C243.182 222.884 243.544 222.312 243.8 221.631L246.715 222.449C246.408 223.438 245.892 224.307 245.168 225.057C244.443 225.798 243.548 226.378 242.483 226.795C241.418 227.205 240.22 227.409 238.891 227.409ZM259.844 227.409C257.952 227.409 256.32 226.991 254.948 226.156C253.584 225.312 252.531 224.136 251.79 222.628C251.057 221.111 250.691 219.347 250.691 217.335C250.691 215.324 251.057 213.551 251.79 212.017C252.531 210.474 253.563 209.273 254.884 208.412C256.213 207.543 257.764 207.108 259.537 207.108C260.56 207.108 261.57 207.278 262.567 207.619C263.564 207.96 264.472 208.514 265.29 209.281C266.108 210.04 266.76 211.045 267.246 212.298C267.732 213.551 267.975 215.094 267.975 216.926V218.205H252.838V215.597H264.906C264.906 214.489 264.685 213.5 264.242 212.631C263.807 211.761 263.185 211.075 262.375 210.572C261.574 210.07 260.628 209.818 259.537 209.818C258.335 209.818 257.296 210.116 256.418 210.713C255.548 211.301 254.879 212.068 254.411 213.014C253.942 213.96 253.708 214.974 253.708 216.057V217.795C253.708 219.278 253.963 220.536 254.475 221.567C254.994 222.589 255.715 223.369 256.635 223.906C257.556 224.435 258.625 224.699 259.844 224.699C260.637 224.699 261.352 224.588 261.992 224.366C262.639 224.136 263.198 223.795 263.666 223.344C264.135 222.884 264.497 222.312 264.753 221.631L267.668 222.449C267.361 223.438 266.845 224.307 266.121 225.057C265.396 225.798 264.502 226.378 263.436 226.795C262.371 227.205 261.173 227.409 259.844 227.409ZM288.468 227.46C287.223 227.46 286.094 227.226 285.08 226.757C284.066 226.28 283.26 225.594 282.664 224.699C282.067 223.795 281.769 222.705 281.769 221.426C281.769 220.301 281.99 219.389 282.433 218.69C282.877 217.983 283.469 217.429 284.21 217.028C284.952 216.628 285.77 216.33 286.665 216.134C287.568 215.929 288.476 215.767 289.388 215.648C290.581 215.494 291.548 215.379 292.29 215.303C293.04 215.217 293.585 215.077 293.926 214.881C294.276 214.685 294.45 214.344 294.45 213.858V213.756C294.45 212.494 294.105 211.514 293.415 210.815C292.733 210.116 291.698 209.767 290.308 209.767C288.868 209.767 287.739 210.082 286.921 210.713C286.102 211.344 285.527 212.017 285.195 212.733L282.331 211.71C282.843 210.517 283.524 209.588 284.377 208.923C285.237 208.25 286.175 207.781 287.189 207.517C288.212 207.244 289.218 207.108 290.206 207.108C290.837 207.108 291.561 207.185 292.379 207.338C293.206 207.483 294.003 207.786 294.77 208.246C295.546 208.706 296.189 209.401 296.7 210.33C297.212 211.259 297.468 212.503 297.468 214.062V227H294.45V224.341H294.297C294.093 224.767 293.752 225.223 293.274 225.709C292.797 226.195 292.162 226.608 291.369 226.949C290.577 227.29 289.61 227.46 288.468 227.46ZM288.928 224.75C290.121 224.75 291.127 224.516 291.945 224.047C292.771 223.578 293.394 222.973 293.811 222.232C294.237 221.49 294.45 220.71 294.45 219.892V217.131C294.323 217.284 294.041 217.425 293.607 217.553C293.181 217.672 292.686 217.778 292.124 217.872C291.57 217.957 291.029 218.034 290.5 218.102C289.98 218.162 289.558 218.213 289.235 218.256C288.45 218.358 287.718 218.524 287.036 218.754C286.362 218.976 285.817 219.312 285.399 219.764C284.99 220.207 284.786 220.812 284.786 221.58C284.786 222.628 285.173 223.42 285.949 223.957C286.733 224.486 287.726 224.75 288.928 224.75ZM305.991 215.188V227H302.974V207.364H305.889V210.432H306.145C306.605 209.435 307.304 208.634 308.241 208.028C309.179 207.415 310.389 207.108 311.872 207.108C313.202 207.108 314.365 207.381 315.362 207.926C316.359 208.463 317.135 209.281 317.689 210.381C318.243 211.472 318.52 212.852 318.52 214.523V227H315.503V214.727C315.503 213.185 315.102 211.983 314.301 211.122C313.5 210.253 312.4 209.818 311.003 209.818C310.04 209.818 309.179 210.027 308.42 210.445C307.67 210.862 307.078 211.472 306.643 212.273C306.209 213.074 305.991 214.045 305.991 215.188ZM331.448 227.409C329.811 227.409 328.367 226.996 327.114 226.169C325.861 225.334 324.881 224.158 324.173 222.641C323.466 221.115 323.112 219.312 323.112 217.233C323.112 215.17 323.466 213.381 324.173 211.864C324.881 210.347 325.865 209.175 327.127 208.348C328.388 207.521 329.845 207.108 331.499 207.108C332.777 207.108 333.787 207.321 334.529 207.747C335.279 208.165 335.85 208.642 336.242 209.179C336.642 209.707 336.953 210.142 337.175 210.483H337.431V200.818H340.448V227H337.533V223.983H337.175C336.953 224.341 336.638 224.793 336.229 225.338C335.82 225.875 335.236 226.357 334.477 226.783C333.719 227.2 332.709 227.409 331.448 227.409ZM331.857 224.699C333.067 224.699 334.09 224.384 334.925 223.753C335.76 223.114 336.395 222.232 336.83 221.107C337.264 219.973 337.482 218.665 337.482 217.182C337.482 215.716 337.269 214.433 336.843 213.334C336.416 212.226 335.786 211.365 334.95 210.751C334.115 210.129 333.084 209.818 331.857 209.818C330.578 209.818 329.513 210.146 328.661 210.803C327.817 211.45 327.182 212.332 326.756 213.449C326.338 214.557 326.129 215.801 326.129 217.182C326.129 218.58 326.343 219.849 326.769 220.991C327.203 222.125 327.843 223.028 328.686 223.702C329.539 224.366 330.595 224.699 331.857 224.699ZM360.966 227L354.983 207.364H358.154L362.398 222.398H362.602L366.796 207.364H370.017L374.159 222.347H374.364L378.608 207.364H381.779L375.796 227H372.83L368.534 211.915H368.227L363.932 227H360.966ZM391.546 227.46C390.301 227.46 389.172 227.226 388.158 226.757C387.144 226.28 386.338 225.594 385.742 224.699C385.145 223.795 384.847 222.705 384.847 221.426C384.847 220.301 385.068 219.389 385.512 218.69C385.955 217.983 386.547 217.429 387.289 217.028C388.03 216.628 388.848 216.33 389.743 216.134C390.646 215.929 391.554 215.767 392.466 215.648C393.659 215.494 394.627 215.379 395.368 215.303C396.118 215.217 396.664 215.077 397.004 214.881C397.354 214.685 397.529 214.344 397.529 213.858V213.756C397.529 212.494 397.183 211.514 396.493 210.815C395.811 210.116 394.776 209.767 393.387 209.767C391.946 209.767 390.817 210.082 389.999 210.713C389.181 211.344 388.605 212.017 388.273 212.733L385.409 211.71C385.921 210.517 386.602 209.588 387.455 208.923C388.316 208.25 389.253 207.781 390.267 207.517C391.29 207.244 392.296 207.108 393.284 207.108C393.915 207.108 394.639 207.185 395.458 207.338C396.284 207.483 397.081 207.786 397.848 208.246C398.624 208.706 399.267 209.401 399.779 210.33C400.29 211.259 400.546 212.503 400.546 214.062V227H397.529V224.341H397.375C397.171 224.767 396.83 225.223 396.352 225.709C395.875 226.195 395.24 226.608 394.448 226.949C393.655 227.29 392.688 227.46 391.546 227.46ZM392.006 224.75C393.199 224.75 394.205 224.516 395.023 224.047C395.85 223.578 396.472 222.973 396.889 222.232C397.316 221.49 397.529 220.71 397.529 219.892V217.131C397.401 217.284 397.119 217.425 396.685 217.553C396.259 217.672 395.764 217.778 395.202 217.872C394.648 217.957 394.107 218.034 393.578 218.102C393.058 218.162 392.637 218.213 392.313 218.256C391.529 218.358 390.796 218.524 390.114 218.754C389.441 218.976 388.895 219.312 388.477 219.764C388.068 220.207 387.864 220.812 387.864 221.58C387.864 222.628 388.252 223.42 389.027 223.957C389.811 224.486 390.804 224.75 392.006 224.75ZM414.592 207.364V209.92H404.416V207.364H414.592ZM407.382 202.659H410.399V221.375C410.399 222.227 410.523 222.866 410.77 223.293C411.025 223.71 411.349 223.991 411.741 224.136C412.142 224.273 412.564 224.341 413.007 224.341C413.339 224.341 413.612 224.324 413.825 224.29C414.038 224.247 414.209 224.213 414.336 224.188L414.95 226.898C414.746 226.974 414.46 227.051 414.094 227.128C413.727 227.213 413.263 227.256 412.7 227.256C411.848 227.256 411.013 227.072 410.194 226.706C409.385 226.339 408.711 225.781 408.175 225.031C407.646 224.281 407.382 223.335 407.382 222.193V202.659ZM426.897 227.409C425.056 227.409 423.471 226.974 422.141 226.105C420.812 225.236 419.789 224.038 419.073 222.513C418.357 220.987 417.999 219.244 417.999 217.284C417.999 215.29 418.366 213.53 419.099 212.004C419.84 210.47 420.871 209.273 422.192 208.412C423.522 207.543 425.073 207.108 426.846 207.108C428.226 207.108 429.471 207.364 430.579 207.875C431.687 208.386 432.594 209.102 433.302 210.023C434.009 210.943 434.448 212.017 434.618 213.244H431.601C431.371 212.349 430.86 211.557 430.067 210.866C429.283 210.168 428.226 209.818 426.897 209.818C425.721 209.818 424.689 210.125 423.803 210.739C422.925 211.344 422.239 212.2 421.745 213.308C421.259 214.408 421.016 215.699 421.016 217.182C421.016 218.699 421.255 220.02 421.732 221.145C422.218 222.27 422.9 223.143 423.778 223.766C424.664 224.388 425.704 224.699 426.897 224.699C427.681 224.699 428.393 224.562 429.032 224.29C429.671 224.017 430.212 223.625 430.655 223.114C431.099 222.602 431.414 221.989 431.601 221.273H434.618C434.448 222.432 434.026 223.476 433.353 224.405C432.688 225.325 431.806 226.058 430.706 226.604C429.616 227.141 428.346 227.409 426.897 227.409ZM442.046 215.188V227H439.029V200.818H442.046V210.432H442.302C442.762 209.418 443.452 208.612 444.373 208.016C445.302 207.411 446.537 207.108 448.08 207.108C449.418 207.108 450.59 207.376 451.596 207.913C452.601 208.442 453.381 209.256 453.935 210.355C454.498 211.446 454.779 212.835 454.779 214.523V227H451.762V214.727C451.762 213.168 451.357 211.962 450.547 211.109C449.746 210.249 448.634 209.818 447.211 209.818C446.222 209.818 445.336 210.027 444.552 210.445C443.776 210.862 443.162 211.472 442.711 212.273C442.268 213.074 442.046 214.045 442.046 215.188ZM128.174 251.364V253.92H117.998V251.364H128.174ZM120.964 246.659H123.981V265.375C123.981 266.227 124.105 266.866 124.352 267.293C124.607 267.71 124.931 267.991 125.323 268.136C125.724 268.273 126.146 268.341 126.589 268.341C126.921 268.341 127.194 268.324 127.407 268.29C127.62 268.247 127.791 268.213 127.919 268.188L128.532 270.898C128.328 270.974 128.042 271.051 127.676 271.128C127.309 271.213 126.845 271.256 126.282 271.256C125.43 271.256 124.595 271.072 123.776 270.706C122.967 270.339 122.294 269.781 121.757 269.031C121.228 268.281 120.964 267.335 120.964 266.193V246.659ZM136.151 259.188V271H133.134V244.818H136.151V254.432H136.407C136.867 253.418 137.558 252.612 138.478 252.016C139.407 251.411 140.643 251.108 142.186 251.108C143.524 251.108 144.695 251.376 145.701 251.913C146.707 252.442 147.487 253.256 148.041 254.355C148.603 255.446 148.884 256.835 148.884 258.523V271H145.867V258.727C145.867 257.168 145.463 255.962 144.653 255.109C143.852 254.249 142.74 253.818 141.316 253.818C140.328 253.818 139.441 254.027 138.657 254.445C137.882 254.862 137.268 255.472 136.816 256.273C136.373 257.074 136.151 258.045 136.151 259.188ZM162.637 271.409C160.745 271.409 159.113 270.991 157.741 270.156C156.377 269.312 155.324 268.136 154.583 266.628C153.85 265.111 153.483 263.347 153.483 261.335C153.483 259.324 153.85 257.551 154.583 256.017C155.324 254.474 156.356 253.273 157.677 252.412C159.006 251.543 160.557 251.108 162.33 251.108C163.353 251.108 164.363 251.278 165.36 251.619C166.357 251.96 167.265 252.514 168.083 253.281C168.901 254.04 169.553 255.045 170.039 256.298C170.525 257.551 170.768 259.094 170.768 260.926V262.205H155.631V259.597H167.699C167.699 258.489 167.478 257.5 167.035 256.631C166.6 255.761 165.978 255.075 165.168 254.572C164.367 254.07 163.421 253.818 162.33 253.818C161.128 253.818 160.089 254.116 159.211 254.713C158.341 255.301 157.672 256.068 157.204 257.014C156.735 257.96 156.501 258.974 156.501 260.057V261.795C156.501 263.278 156.756 264.536 157.268 265.567C157.787 266.589 158.508 267.369 159.428 267.906C160.349 268.435 161.418 268.699 162.637 268.699C163.43 268.699 164.145 268.588 164.785 268.366C165.432 268.136 165.991 267.795 166.459 267.344C166.928 266.884 167.29 266.312 167.546 265.631L170.461 266.449C170.154 267.438 169.638 268.307 168.914 269.057C168.189 269.798 167.295 270.378 166.229 270.795C165.164 271.205 163.966 271.409 162.637 271.409ZM273.328 251.364V253.92H262.743V251.364H273.328ZM265.913 271V248.653C265.913 247.528 266.177 246.591 266.706 245.841C267.234 245.091 267.92 244.528 268.764 244.153C269.608 243.778 270.498 243.591 271.436 243.591C272.177 243.591 272.782 243.651 273.251 243.77C273.72 243.889 274.069 244 274.3 244.102L273.43 246.71C273.277 246.659 273.064 246.595 272.791 246.518C272.527 246.442 272.177 246.403 271.743 246.403C270.746 246.403 270.025 246.655 269.582 247.158C269.148 247.661 268.93 248.398 268.93 249.369V271H265.913ZM280.573 244.818V271H277.556V244.818H280.573ZM294.077 271.409C292.304 271.409 290.748 270.987 289.41 270.143C288.081 269.3 287.041 268.119 286.291 266.602C285.55 265.085 285.179 263.312 285.179 261.284C285.179 259.239 285.55 257.453 286.291 255.928C287.041 254.402 288.081 253.217 289.41 252.374C290.748 251.53 292.304 251.108 294.077 251.108C295.849 251.108 297.4 251.53 298.73 252.374C300.068 253.217 301.108 254.402 301.849 255.928C302.599 257.453 302.974 259.239 302.974 261.284C302.974 263.312 302.599 265.085 301.849 266.602C301.108 268.119 300.068 269.3 298.73 270.143C297.4 270.987 295.849 271.409 294.077 271.409ZM294.077 268.699C295.423 268.699 296.531 268.354 297.4 267.663C298.27 266.973 298.913 266.065 299.331 264.94C299.748 263.815 299.957 262.597 299.957 261.284C299.957 259.972 299.748 258.749 299.331 257.615C298.913 256.482 298.27 255.565 297.4 254.866C296.531 254.168 295.423 253.818 294.077 253.818C292.73 253.818 291.622 254.168 290.753 254.866C289.883 255.565 289.24 256.482 288.822 257.615C288.405 258.749 288.196 259.972 288.196 261.284C288.196 262.597 288.405 263.815 288.822 264.94C289.24 266.065 289.883 266.973 290.753 267.663C291.622 268.354 292.73 268.699 294.077 268.699ZM311.361 271L305.378 251.364H308.548L312.792 266.398H312.997L317.19 251.364H320.412L324.554 266.347H324.758L329.003 251.364H332.173L326.19 271H323.224L318.929 255.915H318.622L314.327 271H311.361ZM346.287 271V251.364H349.304V271H346.287ZM347.821 248.091C347.233 248.091 346.726 247.891 346.3 247.49C345.882 247.089 345.673 246.608 345.673 246.045C345.673 245.483 345.882 245.001 346.3 244.601C346.726 244.2 347.233 244 347.821 244C348.409 244 348.912 244.2 349.329 244.601C349.756 245.001 349.969 245.483 349.969 246.045C349.969 246.608 349.756 247.089 349.329 247.49C348.912 247.891 348.409 248.091 347.821 248.091ZM357.847 259.188V271H354.83V251.364H357.744V254.432H358C358.46 253.435 359.159 252.634 360.097 252.028C361.034 251.415 362.244 251.108 363.727 251.108C365.057 251.108 366.22 251.381 367.218 251.926C368.215 252.463 368.99 253.281 369.544 254.381C370.098 255.472 370.375 256.852 370.375 258.523V271H367.358V258.727C367.358 257.185 366.958 255.983 366.156 255.122C365.355 254.253 364.256 253.818 362.858 253.818C361.895 253.818 361.034 254.027 360.276 254.445C359.526 254.862 358.933 255.472 358.499 256.273C358.064 257.074 357.847 258.045 357.847 259.188Z" fill="black"/>
<path d="M193.638 274.273V241.545H195.735V274.273H193.638ZM199.199 252.348C199.097 251.317 198.658 250.516 197.883 249.945C197.107 249.374 196.055 249.088 194.725 249.088C193.822 249.088 193.059 249.216 192.437 249.472C191.814 249.719 191.337 250.064 191.005 250.507C190.681 250.95 190.519 251.453 190.519 252.016C190.502 252.484 190.6 252.893 190.813 253.243C191.035 253.592 191.337 253.895 191.721 254.151C192.104 254.398 192.547 254.615 193.05 254.803C193.553 254.982 194.09 255.135 194.661 255.263L197.013 255.825C198.155 256.081 199.204 256.422 200.158 256.848C201.113 257.274 201.939 257.798 202.638 258.42C203.337 259.043 203.878 259.776 204.262 260.619C204.654 261.463 204.854 262.43 204.863 263.521C204.854 265.124 204.445 266.513 203.635 267.689C202.834 268.857 201.675 269.764 200.158 270.412C198.65 271.051 196.83 271.371 194.699 271.371C192.586 271.371 190.745 271.047 189.177 270.399C187.617 269.751 186.398 268.793 185.52 267.523C184.651 266.244 184.195 264.663 184.153 262.78H189.509C189.569 263.658 189.82 264.391 190.263 264.979C190.715 265.558 191.316 265.997 192.066 266.295C192.824 266.585 193.681 266.73 194.635 266.73C195.573 266.73 196.387 266.594 197.077 266.321C197.776 266.048 198.317 265.669 198.701 265.183C199.084 264.697 199.276 264.139 199.276 263.509C199.276 262.92 199.101 262.426 198.752 262.026C198.411 261.625 197.908 261.284 197.243 261.003C196.587 260.722 195.782 260.466 194.827 260.236L191.976 259.52C189.769 258.983 188.026 258.143 186.748 257.001C185.469 255.859 184.834 254.321 184.843 252.386C184.834 250.801 185.256 249.416 186.108 248.232C186.969 247.047 188.15 246.122 189.65 245.457C191.15 244.793 192.854 244.46 194.763 244.46C196.706 244.46 198.403 244.793 199.851 245.457C201.309 246.122 202.442 247.047 203.252 248.232C204.062 249.416 204.479 250.788 204.505 252.348H199.199ZM217.228 274.273V241.545H219.325V274.273H217.228ZM222.789 252.348C222.687 251.317 222.248 250.516 221.472 249.945C220.697 249.374 219.644 249.088 218.315 249.088C217.411 249.088 216.649 249.216 216.026 249.472C215.404 249.719 214.927 250.064 214.595 250.507C214.271 250.95 214.109 251.453 214.109 252.016C214.092 252.484 214.19 252.893 214.403 253.243C214.624 253.592 214.927 253.895 215.311 254.151C215.694 254.398 216.137 254.615 216.64 254.803C217.143 254.982 217.68 255.135 218.251 255.263L220.603 255.825C221.745 256.081 222.794 256.422 223.748 256.848C224.703 257.274 225.529 257.798 226.228 258.42C226.927 259.043 227.468 259.776 227.852 260.619C228.244 261.463 228.444 262.43 228.453 263.521C228.444 265.124 228.035 266.513 227.225 267.689C226.424 268.857 225.265 269.764 223.748 270.412C222.24 271.051 220.42 271.371 218.289 271.371C216.176 271.371 214.335 271.047 212.767 270.399C211.207 269.751 209.988 268.793 209.11 267.523C208.241 266.244 207.785 264.663 207.742 262.78H213.099C213.159 263.658 213.41 264.391 213.853 264.979C214.305 265.558 214.906 265.997 215.656 266.295C216.414 266.585 217.271 266.73 218.225 266.73C219.163 266.73 219.977 266.594 220.667 266.321C221.366 266.048 221.907 265.669 222.291 265.183C222.674 264.697 222.866 264.139 222.866 263.509C222.866 262.92 222.691 262.426 222.342 262.026C222.001 261.625 221.498 261.284 220.833 261.003C220.177 260.722 219.372 260.466 218.417 260.236L215.566 259.52C213.359 258.983 211.616 258.143 210.338 257.001C209.059 255.859 208.424 254.321 208.433 252.386C208.424 250.801 208.846 249.416 209.698 248.232C210.559 247.047 211.74 246.122 213.24 245.457C214.74 244.793 216.444 244.46 218.353 244.46C220.296 244.46 221.992 244.793 223.441 245.457C224.899 246.122 226.032 247.047 226.842 248.232C227.651 249.416 228.069 250.788 228.095 252.348H222.789ZM240.818 274.273V241.545H242.915V274.273H240.818ZM246.379 252.348C246.277 251.317 245.838 250.516 245.062 249.945C244.287 249.374 243.234 249.088 241.905 249.088C241.001 249.088 240.238 249.216 239.616 249.472C238.994 249.719 238.517 250.064 238.184 250.507C237.861 250.95 237.699 251.453 237.699 252.016C237.682 252.484 237.78 252.893 237.993 253.243C238.214 253.592 238.517 253.895 238.9 254.151C239.284 254.398 239.727 254.615 240.23 254.803C240.733 254.982 241.27 255.135 241.841 255.263L244.193 255.825C245.335 256.081 246.383 256.422 247.338 256.848C248.292 257.274 249.119 257.798 249.818 258.42C250.517 259.043 251.058 259.776 251.442 260.619C251.834 261.463 252.034 262.43 252.042 263.521C252.034 265.124 251.625 266.513 250.815 267.689C250.014 268.857 248.855 269.764 247.338 270.412C245.829 271.051 244.01 271.371 241.879 271.371C239.765 271.371 237.925 271.047 236.356 270.399C234.797 269.751 233.578 268.793 232.7 267.523C231.831 266.244 231.375 264.663 231.332 262.78H236.689C236.748 263.658 237 264.391 237.443 264.979C237.895 265.558 238.496 265.997 239.246 266.295C240.004 266.585 240.861 266.73 241.815 266.73C242.753 266.73 243.567 266.594 244.257 266.321C244.956 266.048 245.497 265.669 245.881 265.183C246.264 264.697 246.456 264.139 246.456 263.509C246.456 262.92 246.281 262.426 245.932 262.026C245.591 261.625 245.088 261.284 244.423 261.003C243.767 260.722 242.961 260.466 242.007 260.236L239.156 259.52C236.949 258.983 235.206 258.143 233.927 257.001C232.649 255.859 232.014 254.321 232.023 252.386C232.014 250.801 232.436 249.416 233.288 248.232C234.149 247.047 235.329 246.122 236.829 245.457C238.329 244.793 240.034 244.46 241.943 244.46C243.886 244.46 245.582 244.793 247.031 245.457C248.488 246.122 249.622 247.047 250.432 248.232C251.241 249.416 251.659 250.788 251.684 252.348H246.379Z" fill="#207D39"/>
<path d="M200.273 129.562C199.915 128.318 199.412 127.219 198.764 126.264C198.116 125.293 197.324 124.474 196.386 123.81C195.466 123.128 194.409 122.608 193.216 122.25C192.04 121.892 190.736 121.713 189.304 121.713C186.628 121.713 184.276 122.378 182.247 123.707C180.236 125.037 178.668 126.972 177.543 129.511C176.418 132.034 175.855 135.119 175.855 138.767C175.855 142.415 176.409 145.517 177.517 148.074C178.625 150.631 180.193 152.582 182.222 153.929C184.25 155.259 186.645 155.923 189.406 155.923C191.912 155.923 194.051 155.48 195.824 154.594C197.614 153.69 198.977 152.42 199.915 150.784C200.869 149.148 201.347 147.213 201.347 144.98L203.597 145.312H190.097V136.977H212.009V143.574C212.009 148.176 211.037 152.131 209.094 155.438C207.151 158.727 204.474 161.267 201.065 163.057C197.656 164.83 193.753 165.716 189.355 165.716C184.446 165.716 180.134 164.634 176.418 162.469C172.702 160.287 169.804 157.193 167.724 153.188C165.662 149.165 164.631 144.392 164.631 138.869C164.631 134.625 165.244 130.841 166.472 127.517C167.716 124.176 169.455 121.347 171.688 119.028C173.92 116.71 176.52 114.946 179.486 113.736C182.452 112.526 185.665 111.92 189.125 111.92C192.091 111.92 194.852 112.355 197.409 113.224C199.966 114.077 202.233 115.287 204.21 116.855C206.205 118.423 207.832 120.29 209.094 122.455C210.355 124.602 211.165 126.972 211.523 129.562H200.273ZM231.319 165.741C228.813 165.741 226.58 165.307 224.62 164.438C222.66 163.551 221.109 162.247 219.967 160.526C218.842 158.787 218.279 156.622 218.279 154.031C218.279 151.849 218.68 150.017 219.481 148.534C220.282 147.051 221.373 145.858 222.754 144.955C224.134 144.051 225.702 143.369 227.458 142.909C229.231 142.449 231.089 142.125 233.032 141.938C235.316 141.699 237.157 141.477 238.555 141.273C239.952 141.051 240.967 140.727 241.597 140.301C242.228 139.875 242.543 139.244 242.543 138.409V138.256C242.543 136.636 242.032 135.384 241.009 134.497C240.004 133.611 238.572 133.168 236.714 133.168C234.754 133.168 233.194 133.602 232.035 134.472C230.876 135.324 230.109 136.398 229.734 137.693L219.66 136.875C220.171 134.489 221.177 132.426 222.677 130.688C224.177 128.932 226.112 127.585 228.481 126.648C230.867 125.693 233.629 125.216 236.765 125.216C238.947 125.216 241.035 125.472 243.029 125.983C245.04 126.494 246.822 127.287 248.373 128.361C249.941 129.435 251.177 130.815 252.08 132.503C252.984 134.173 253.435 136.176 253.435 138.511V165H243.106V159.554H242.799C242.168 160.781 241.325 161.864 240.268 162.801C239.211 163.722 237.941 164.446 236.458 164.974C234.975 165.486 233.262 165.741 231.319 165.741ZM234.438 158.224C236.04 158.224 237.455 157.909 238.683 157.278C239.91 156.631 240.873 155.761 241.572 154.67C242.271 153.58 242.62 152.344 242.62 150.963V146.795C242.279 147.017 241.81 147.222 241.214 147.409C240.634 147.58 239.978 147.741 239.245 147.895C238.512 148.031 237.779 148.159 237.046 148.278C236.313 148.381 235.648 148.474 235.052 148.56C233.773 148.747 232.657 149.045 231.702 149.455C230.748 149.864 230.006 150.418 229.478 151.116C228.95 151.798 228.685 152.651 228.685 153.673C228.685 155.156 229.222 156.29 230.296 157.074C231.387 157.841 232.768 158.224 234.438 158.224ZM282.775 125.727V133.909H259.124V125.727H282.775ZM264.494 116.318H275.386V152.932C275.386 153.937 275.539 154.722 275.846 155.284C276.153 155.83 276.579 156.213 277.124 156.435C277.687 156.656 278.335 156.767 279.067 156.767C279.579 156.767 280.09 156.724 280.602 156.639C281.113 156.537 281.505 156.46 281.778 156.409L283.491 164.514C282.945 164.685 282.178 164.881 281.19 165.102C280.201 165.341 278.999 165.486 277.585 165.537C274.96 165.639 272.658 165.29 270.681 164.489C268.721 163.687 267.195 162.443 266.104 160.756C265.013 159.068 264.477 156.937 264.494 154.364V116.318ZM307.346 165.767C303.306 165.767 299.829 164.949 296.914 163.312C294.016 161.659 291.783 159.324 290.215 156.307C288.647 153.273 287.863 149.685 287.863 145.543C287.863 141.503 288.647 137.957 290.215 134.906C291.783 131.855 293.991 129.477 296.837 127.773C299.701 126.068 303.059 125.216 306.911 125.216C309.502 125.216 311.914 125.634 314.147 126.469C316.397 127.287 318.357 128.523 320.028 130.176C321.715 131.83 323.028 133.909 323.965 136.415C324.903 138.903 325.371 141.818 325.371 145.159V148.151H292.21V141.401H315.119C315.119 139.832 314.778 138.443 314.096 137.233C313.414 136.023 312.468 135.077 311.258 134.395C310.065 133.696 308.675 133.347 307.09 133.347C305.437 133.347 303.971 133.73 302.692 134.497C301.431 135.247 300.442 136.261 299.727 137.54C299.011 138.801 298.644 140.207 298.627 141.759V148.176C298.627 150.119 298.985 151.798 299.701 153.213C300.434 154.628 301.465 155.719 302.795 156.486C304.124 157.253 305.701 157.636 307.525 157.636C308.735 157.636 309.843 157.466 310.849 157.125C311.854 156.784 312.715 156.273 313.431 155.591C314.147 154.909 314.692 154.074 315.067 153.085L325.141 153.75C324.63 156.17 323.582 158.284 321.996 160.091C320.428 161.881 318.4 163.278 315.911 164.284C313.44 165.273 310.585 165.767 307.346 165.767Z" fill="#207D39"/>
</svg>
