<svg width="490" height="691" viewBox="0 0 490 691" fill="none" xmlns="http://www.w3.org/2000/svg">
<rect width="490" height="691" fill="white"/>
<g clip-path="url(#clip0_25_186)">
<rect width="490" height="300" fill="white"/>
<rect width="490" height="48" fill="#F6F6F6"/>
<path d="M149.759 28V19.2727H151.604V22.8736H155.349V19.2727H157.19V28H155.349V24.3949H151.604V28H149.759ZM161.635 28.1278C160.973 28.1278 160.401 27.9872 159.918 27.706C159.438 27.4219 159.067 27.027 158.805 26.5213C158.544 26.0128 158.413 25.4233 158.413 24.7528C158.413 24.0767 158.544 23.4858 158.805 22.9801C159.067 22.4716 159.438 22.0767 159.918 21.7955C160.401 21.5114 160.973 21.3693 161.635 21.3693C162.297 21.3693 162.868 21.5114 163.348 21.7955C163.831 22.0767 164.203 22.4716 164.464 22.9801C164.726 23.4858 164.857 24.0767 164.857 24.7528C164.857 25.4233 164.726 26.0128 164.464 26.5213C164.203 27.027 163.831 27.4219 163.348 27.706C162.868 27.9872 162.297 28.1278 161.635 28.1278ZM161.643 26.7216C161.945 26.7216 162.196 26.6364 162.398 26.4659C162.599 26.2926 162.751 26.0568 162.854 25.7585C162.959 25.4602 163.011 25.1207 163.011 24.7401C163.011 24.3594 162.959 24.0199 162.854 23.7216C162.751 23.4233 162.599 23.1875 162.398 23.0142C162.196 22.8409 161.945 22.7543 161.643 22.7543C161.339 22.7543 161.084 22.8409 160.876 23.0142C160.672 23.1875 160.517 23.4233 160.412 23.7216C160.31 24.0199 160.259 24.3594 160.259 24.7401C160.259 25.1207 160.31 25.4602 160.412 25.7585C160.517 26.0568 160.672 26.2926 160.876 26.4659C161.084 26.6364 161.339 26.7216 161.643 26.7216ZM166.037 28V21.4545H167.767V22.6094H167.844C167.98 22.2259 168.207 21.9233 168.526 21.7017C168.844 21.4801 169.224 21.3693 169.668 21.3693C170.116 21.3693 170.499 21.4815 170.814 21.706C171.129 21.9276 171.339 22.2287 171.445 22.6094H171.513C171.646 22.2344 171.888 21.9347 172.237 21.7102C172.589 21.483 173.006 21.3693 173.486 21.3693C174.097 21.3693 174.592 21.5639 174.973 21.9531C175.357 22.3395 175.548 22.8878 175.548 23.598V28H173.737V23.956C173.737 23.5923 173.641 23.3196 173.447 23.1378C173.254 22.956 173.013 22.8651 172.723 22.8651C172.393 22.8651 172.136 22.9702 171.952 23.1804C171.767 23.3878 171.675 23.6619 171.675 24.0028V28H169.915V23.9176C169.915 23.5966 169.822 23.3409 169.638 23.1506C169.456 22.9602 169.216 22.8651 168.918 22.8651C168.716 22.8651 168.534 22.9162 168.372 23.0185C168.213 23.1179 168.087 23.2585 167.993 23.4403C167.899 23.6193 167.852 23.8295 167.852 24.071V28H166.037ZM179.965 28.1278C179.292 28.1278 178.712 27.9915 178.227 27.7188C177.744 27.4432 177.371 27.054 177.11 26.5511C176.849 26.0455 176.718 25.4474 176.718 24.7571C176.718 24.0838 176.849 23.4929 177.11 22.9844C177.371 22.4759 177.739 22.0795 178.214 21.7955C178.691 21.5114 179.251 21.3693 179.893 21.3693C180.325 21.3693 180.727 21.4389 181.099 21.5781C181.474 21.7145 181.8 21.9205 182.079 22.196C182.36 22.4716 182.579 22.8182 182.735 23.2358C182.891 23.6506 182.969 24.1364 182.969 24.6932V25.1918H177.442V24.0668H181.261C181.261 23.8054 181.204 23.5739 181.09 23.3722C180.977 23.1705 180.819 23.0128 180.617 22.8991C180.418 22.7827 180.187 22.7244 179.923 22.7244C179.647 22.7244 179.403 22.7884 179.19 22.9162C178.979 23.0412 178.815 23.2102 178.695 23.4233C178.576 23.6335 178.515 23.8679 178.512 24.1264V25.196C178.512 25.5199 178.572 25.7997 178.691 26.0355C178.813 26.2713 178.985 26.4531 179.207 26.581C179.428 26.7088 179.691 26.7727 179.995 26.7727C180.197 26.7727 180.381 26.7443 180.549 26.6875C180.717 26.6307 180.86 26.5455 180.979 26.4318C181.099 26.3182 181.19 26.179 181.252 26.0142L182.931 26.125C182.846 26.5284 182.671 26.8807 182.407 27.1818C182.146 27.4801 181.808 27.7131 181.393 27.8807C180.981 28.0455 180.505 28.1278 179.965 28.1278ZM197.641 16.4602V30.8125H195.92V16.4602H197.641ZM216.766 28H213.673V19.2727H216.792C217.67 19.2727 218.425 19.4474 219.059 19.7969C219.692 20.1435 220.18 20.642 220.521 21.2926C220.864 21.9432 221.036 22.7216 221.036 23.6278C221.036 24.5369 220.864 25.3182 220.521 25.9716C220.18 26.625 219.69 27.1264 219.05 27.4759C218.414 27.8253 217.653 28 216.766 28ZM215.518 26.419H216.69C217.235 26.419 217.694 26.3224 218.066 26.1293C218.441 25.9332 218.722 25.6307 218.91 25.2216C219.1 24.8097 219.195 24.2784 219.195 23.6278C219.195 22.983 219.1 22.456 218.91 22.0469C218.722 21.6378 218.442 21.3366 218.07 21.1435C217.698 20.9503 217.239 20.8537 216.694 20.8537H215.518V26.419ZM225.352 28.1278C224.679 28.1278 224.099 27.9915 223.613 27.7188C223.13 27.4432 222.758 27.054 222.497 26.5511C222.235 26.0455 222.105 25.4474 222.105 24.7571C222.105 24.0838 222.235 23.4929 222.497 22.9844C222.758 22.4759 223.126 22.0795 223.6 21.7955C224.078 21.5114 224.637 21.3693 225.279 21.3693C225.711 21.3693 226.113 21.4389 226.485 21.5781C226.86 21.7145 227.187 21.9205 227.466 22.196C227.747 22.4716 227.966 22.8182 228.122 23.2358C228.278 23.6506 228.356 24.1364 228.356 24.6932V25.1918H222.829V24.0668H226.647C226.647 23.8054 226.591 23.5739 226.477 23.3722C226.363 23.1705 226.206 23.0128 226.004 22.8991C225.805 22.7827 225.574 22.7244 225.309 22.7244C225.034 22.7244 224.789 22.7884 224.576 22.9162C224.366 23.0412 224.201 23.2102 224.082 23.4233C223.963 23.6335 223.902 23.8679 223.899 24.1264V25.196C223.899 25.5199 223.958 25.7997 224.078 26.0355C224.2 26.2713 224.372 26.4531 224.593 26.581C224.815 26.7088 225.078 26.7727 225.382 26.7727C225.583 26.7727 225.768 26.7443 225.936 26.6875C226.103 26.6307 226.247 26.5455 226.366 26.4318C226.485 26.3182 226.576 26.179 226.639 26.0142L228.318 26.125C228.233 26.5284 228.058 26.8807 227.794 27.1818C227.532 27.4801 227.194 27.7131 226.779 27.8807C226.368 28.0455 225.892 28.1278 225.352 28.1278ZM229.541 28V21.4545H231.271V22.6094H231.348C231.484 22.2259 231.711 21.9233 232.029 21.7017C232.348 21.4801 232.728 21.3693 233.172 21.3693C233.62 21.3693 234.002 21.4815 234.318 21.706C234.633 21.9276 234.843 22.2287 234.949 22.6094H235.017C235.15 22.2344 235.392 21.9347 235.741 21.7102C236.093 21.483 236.51 21.3693 236.99 21.3693C237.6 21.3693 238.096 21.5639 238.477 21.9531C238.86 22.3395 239.052 22.8878 239.052 23.598V28H237.241V23.956C237.241 23.5923 237.145 23.3196 236.951 23.1378C236.758 22.956 236.517 22.8651 236.227 22.8651C235.897 22.8651 235.64 22.9702 235.456 23.1804C235.271 23.3878 235.179 23.6619 235.179 24.0028V28H233.419V23.9176C233.419 23.5966 233.326 23.3409 233.142 23.1506C232.96 22.9602 232.72 22.8651 232.422 22.8651C232.22 22.8651 232.038 22.9162 231.876 23.0185C231.717 23.1179 231.591 23.2585 231.497 23.4403C231.403 23.6193 231.356 23.8295 231.356 24.071V28H229.541ZM243.444 28.1278C242.782 28.1278 242.209 27.9872 241.726 27.706C241.246 27.4219 240.875 27.027 240.614 26.5213C240.353 26.0128 240.222 25.4233 240.222 24.7528C240.222 24.0767 240.353 23.4858 240.614 22.9801C240.875 22.4716 241.246 22.0767 241.726 21.7955C242.209 21.5114 242.782 21.3693 243.444 21.3693C244.105 21.3693 244.676 21.5114 245.157 21.7955C245.64 22.0767 246.012 22.4716 246.273 22.9801C246.534 23.4858 246.665 24.0767 246.665 24.7528C246.665 25.4233 246.534 26.0128 246.273 26.5213C246.012 27.027 245.64 27.4219 245.157 27.706C244.676 27.9872 244.105 28.1278 243.444 28.1278ZM243.452 26.7216C243.753 26.7216 244.005 26.6364 244.206 26.4659C244.408 26.2926 244.56 26.0568 244.662 25.7585C244.767 25.4602 244.82 25.1207 244.82 24.7401C244.82 24.3594 244.767 24.0199 244.662 23.7216C244.56 23.4233 244.408 23.1875 244.206 23.0142C244.005 22.8409 243.753 22.7543 243.452 22.7543C243.148 22.7543 242.892 22.8409 242.685 23.0142C242.48 23.1875 242.326 23.4233 242.221 23.7216C242.118 24.0199 242.067 24.3594 242.067 24.7401C242.067 25.1207 242.118 25.4602 242.221 25.7585C242.326 26.0568 242.48 26.2926 242.685 26.4659C242.892 26.6364 243.148 26.7216 243.452 26.7216ZM261.333 16.4602V30.8125H259.611V16.4602H261.333ZM280.458 28H277.364V19.2727H280.483C281.361 19.2727 282.117 19.4474 282.75 19.7969C283.384 20.1435 283.871 20.642 284.212 21.2926C284.556 21.9432 284.728 22.7216 284.728 23.6278C284.728 24.5369 284.556 25.3182 284.212 25.9716C283.871 26.625 283.381 27.1264 282.742 27.4759C282.105 27.8253 281.344 28 280.458 28ZM279.209 26.419H280.381C280.926 26.419 281.385 26.3224 281.757 26.1293C282.132 25.9332 282.414 25.6307 282.601 25.2216C282.792 24.8097 282.887 24.2784 282.887 23.6278C282.887 22.983 282.792 22.456 282.601 22.0469C282.414 21.6378 282.134 21.3366 281.762 21.1435C281.39 20.9503 280.931 20.8537 280.385 20.8537H279.209V26.419ZM287.927 28.1236C287.509 28.1236 287.137 28.0511 286.81 27.9062C286.484 27.7585 286.225 27.5412 286.035 27.2543C285.847 26.9645 285.754 26.6037 285.754 26.1719C285.754 25.8082 285.82 25.5028 285.954 25.2557C286.087 25.0085 286.269 24.8097 286.499 24.6591C286.729 24.5085 286.991 24.3949 287.283 24.3182C287.579 24.2415 287.888 24.1875 288.212 24.1562C288.593 24.1165 288.9 24.0795 289.133 24.0455C289.366 24.0085 289.535 23.9545 289.64 23.8835C289.745 23.8125 289.798 23.7074 289.798 23.5682V23.5426C289.798 23.2727 289.712 23.0639 289.542 22.9162C289.374 22.7685 289.136 22.6946 288.826 22.6946C288.499 22.6946 288.239 22.767 288.046 22.9119C287.853 23.054 287.725 23.233 287.663 23.4489L285.984 23.3125C286.069 22.9148 286.237 22.571 286.487 22.2812C286.737 21.9886 287.059 21.7642 287.454 21.608C287.852 21.4489 288.312 21.3693 288.835 21.3693C289.198 21.3693 289.546 21.4119 289.879 21.4972C290.214 21.5824 290.511 21.7145 290.769 21.8935C291.031 22.0724 291.237 22.3026 291.387 22.5838C291.538 22.8622 291.613 23.196 291.613 23.5852V28H289.891V27.0923H289.84C289.735 27.2969 289.594 27.4773 289.418 27.6335C289.242 27.7869 289.031 27.9077 288.783 27.9957C288.536 28.081 288.251 28.1236 287.927 28.1236ZM288.447 26.8707C288.714 26.8707 288.95 26.8182 289.154 26.7131C289.359 26.6051 289.519 26.4602 289.636 26.2784C289.752 26.0966 289.81 25.8906 289.81 25.6605V24.9659C289.754 25.0028 289.675 25.0369 289.576 25.0682C289.479 25.0966 289.37 25.1236 289.248 25.1491C289.126 25.1719 289.004 25.1932 288.881 25.2131C288.759 25.2301 288.648 25.2457 288.549 25.2599C288.336 25.2912 288.15 25.3409 287.991 25.4091C287.832 25.4773 287.708 25.5696 287.62 25.6861C287.532 25.7997 287.488 25.9418 287.488 26.1122C287.488 26.3594 287.577 26.5483 287.756 26.679C287.938 26.8068 288.168 26.8707 288.447 26.8707ZM298.467 23.321L296.805 23.4233C296.777 23.2812 296.716 23.1534 296.622 23.0398C296.528 22.9233 296.405 22.831 296.251 22.7628C296.101 22.6918 295.92 22.6562 295.71 22.6562C295.429 22.6562 295.192 22.7159 294.999 22.8352C294.805 22.9517 294.709 23.108 294.709 23.304C294.709 23.4602 294.771 23.5923 294.896 23.7003C295.021 23.8082 295.236 23.8949 295.54 23.9602L296.724 24.1989C297.361 24.3295 297.835 24.5398 298.148 24.8295C298.46 25.1193 298.616 25.5 298.616 25.9716C298.616 26.4006 298.49 26.777 298.237 27.1009C297.987 27.4247 297.643 27.6776 297.206 27.8594C296.771 28.0384 296.27 28.1278 295.702 28.1278C294.835 28.1278 294.145 27.9474 293.631 27.5866C293.119 27.223 292.82 26.7287 292.732 26.1037L294.517 26.0099C294.571 26.2741 294.702 26.4759 294.909 26.6151C295.116 26.7514 295.382 26.8196 295.706 26.8196C296.024 26.8196 296.28 26.7585 296.473 26.6364C296.669 26.5114 296.768 26.3509 296.771 26.1548C296.768 25.9901 296.699 25.8551 296.562 25.75C296.426 25.642 296.216 25.5597 295.932 25.5028L294.798 25.277C294.159 25.1491 293.683 24.9276 293.371 24.6122C293.061 24.2969 292.906 23.8949 292.906 23.4062C292.906 22.9858 293.02 22.6236 293.247 22.3196C293.477 22.0156 293.8 21.7812 294.214 21.6165C294.632 21.4517 295.121 21.3693 295.68 21.3693C296.507 21.3693 297.158 21.544 297.632 21.8935C298.109 22.2429 298.388 22.7187 298.467 23.321ZM301.575 24.2159V28H299.76V19.2727H301.524V22.6094H301.6C301.748 22.223 301.987 21.9205 302.316 21.7017C302.646 21.4801 303.059 21.3693 303.556 21.3693C304.011 21.3693 304.407 21.4688 304.745 21.6676C305.086 21.8636 305.35 22.1463 305.538 22.5156C305.728 22.8821 305.822 23.321 305.819 23.8324V28H304.004V24.1562C304.007 23.7528 303.904 23.4389 303.697 23.2145C303.493 22.9901 303.206 22.8778 302.836 22.8778C302.589 22.8778 302.37 22.9304 302.18 23.0355C301.993 23.1406 301.845 23.294 301.737 23.4957C301.632 23.6946 301.578 23.9347 301.575 24.2159ZM307.282 28V19.2727H309.097V22.554H309.153C309.232 22.3778 309.347 22.1989 309.498 22.017C309.651 21.8324 309.85 21.679 310.094 21.5568C310.342 21.4318 310.648 21.3693 311.015 21.3693C311.492 21.3693 311.933 21.4943 312.336 21.7443C312.739 21.9915 313.062 22.3651 313.303 22.8651C313.545 23.3622 313.665 23.9858 313.665 24.7358C313.665 25.4659 313.548 26.0824 313.312 26.5852C313.079 27.0852 312.761 27.4645 312.357 27.723C311.957 27.9787 311.508 28.1065 311.011 28.1065C310.658 28.1065 310.359 28.0483 310.112 27.9318C309.867 27.8153 309.667 27.669 309.511 27.4929C309.354 27.3139 309.235 27.1335 309.153 26.9517H309.072V28H307.282ZM309.059 24.7273C309.059 25.1165 309.113 25.456 309.221 25.7457C309.329 26.0355 309.485 26.2614 309.69 26.4233C309.894 26.5824 310.143 26.6619 310.435 26.6619C310.731 26.6619 310.981 26.581 311.185 26.419C311.39 26.2543 311.545 26.027 311.65 25.7372C311.758 25.4446 311.812 25.108 311.812 24.7273C311.812 24.3494 311.759 24.017 311.654 23.7301C311.549 23.4432 311.394 23.2187 311.19 23.0568C310.985 22.8949 310.734 22.8139 310.435 22.8139C310.14 22.8139 309.89 22.892 309.685 23.0483C309.484 23.2045 309.329 23.4261 309.221 23.7131C309.113 24 309.059 24.3381 309.059 24.7273ZM317.834 28.1278C317.172 28.1278 316.6 27.9872 316.117 27.706C315.637 27.4219 315.266 27.027 315.005 26.5213C314.743 26.0128 314.613 25.4233 314.613 24.7528C314.613 24.0767 314.743 23.4858 315.005 22.9801C315.266 22.4716 315.637 22.0767 316.117 21.7955C316.6 21.5114 317.172 21.3693 317.834 21.3693C318.496 21.3693 319.067 21.5114 319.547 21.7955C320.03 22.0767 320.402 22.4716 320.664 22.9801C320.925 23.4858 321.056 24.0767 321.056 24.7528C321.056 25.4233 320.925 26.0128 320.664 26.5213C320.402 27.027 320.03 27.4219 319.547 27.706C319.067 27.9872 318.496 28.1278 317.834 28.1278ZM317.843 26.7216C318.144 26.7216 318.395 26.6364 318.597 26.4659C318.799 26.2926 318.951 26.0568 319.053 25.7585C319.158 25.4602 319.211 25.1207 319.211 24.7401C319.211 24.3594 319.158 24.0199 319.053 23.7216C318.951 23.4233 318.799 23.1875 318.597 23.0142C318.395 22.8409 318.144 22.7543 317.843 22.7543C317.539 22.7543 317.283 22.8409 317.076 23.0142C316.871 23.1875 316.716 23.4233 316.611 23.7216C316.509 24.0199 316.458 24.3594 316.458 24.7401C316.458 25.1207 316.509 25.4602 316.611 25.7585C316.716 26.0568 316.871 26.2926 317.076 26.4659C317.283 26.6364 317.539 26.7216 317.843 26.7216ZM324.103 28.1236C323.685 28.1236 323.313 28.0511 322.986 27.9062C322.659 27.7585 322.401 27.5412 322.211 27.2543C322.023 26.9645 321.929 26.6037 321.929 26.1719C321.929 25.8082 321.996 25.5028 322.13 25.2557C322.263 25.0085 322.445 24.8097 322.675 24.6591C322.905 24.5085 323.167 24.3949 323.459 24.3182C323.755 24.2415 324.064 24.1875 324.388 24.1562C324.769 24.1165 325.076 24.0795 325.309 24.0455C325.542 24.0085 325.711 23.9545 325.816 23.8835C325.921 23.8125 325.973 23.7074 325.973 23.5682V23.5426C325.973 23.2727 325.888 23.0639 325.718 22.9162C325.55 22.7685 325.311 22.6946 325.002 22.6946C324.675 22.6946 324.415 22.767 324.222 22.9119C324.029 23.054 323.901 23.233 323.838 23.4489L322.159 23.3125C322.245 22.9148 322.412 22.571 322.662 22.2812C322.912 21.9886 323.235 21.7642 323.63 21.608C324.027 21.4489 324.488 21.3693 325.01 21.3693C325.374 21.3693 325.722 21.4119 326.054 21.4972C326.39 21.5824 326.686 21.7145 326.945 21.8935C327.206 22.0724 327.412 22.3026 327.563 22.5838C327.713 22.8622 327.789 23.196 327.789 23.5852V28H326.067V27.0923H326.016C325.911 27.2969 325.77 27.4773 325.594 27.6335C325.418 27.7869 325.206 27.9077 324.959 27.9957C324.712 28.081 324.426 28.1236 324.103 28.1236ZM324.623 26.8707C324.89 26.8707 325.125 26.8182 325.33 26.7131C325.534 26.6051 325.695 26.4602 325.811 26.2784C325.928 26.0966 325.986 25.8906 325.986 25.6605V24.9659C325.929 25.0028 325.851 25.0369 325.752 25.0682C325.655 25.0966 325.546 25.1236 325.424 25.1491C325.301 25.1719 325.179 25.1932 325.057 25.2131C324.935 25.2301 324.824 25.2457 324.725 25.2599C324.512 25.2912 324.326 25.3409 324.167 25.4091C324.007 25.4773 323.884 25.5696 323.796 25.6861C323.708 25.7997 323.664 25.9418 323.664 26.1122C323.664 26.3594 323.753 26.5483 323.932 26.679C324.114 26.8068 324.344 26.8707 324.623 26.8707ZM329.197 28V21.4545H330.957V22.5966H331.025C331.145 22.1903 331.345 21.8835 331.626 21.6761C331.907 21.4659 332.231 21.3608 332.598 21.3608C332.689 21.3608 332.787 21.3665 332.892 21.3778C332.997 21.3892 333.089 21.4048 333.169 21.4247V23.0355C333.083 23.0099 332.966 22.9872 332.815 22.9673C332.664 22.9474 332.527 22.9375 332.402 22.9375C332.135 22.9375 331.896 22.9957 331.686 23.1122C331.478 23.2259 331.314 23.3849 331.191 23.5895C331.072 23.794 331.012 24.0298 331.012 24.2969V28H329.197ZM336.214 28.1065C335.717 28.1065 335.267 27.9787 334.864 27.723C334.463 27.4645 334.145 27.0852 333.909 26.5852C333.676 26.0824 333.56 25.4659 333.56 24.7358C333.56 23.9858 333.68 23.3622 333.922 22.8651C334.163 22.3651 334.484 21.9915 334.885 21.7443C335.288 21.4943 335.73 21.3693 336.21 21.3693C336.577 21.3693 336.882 21.4318 337.126 21.5568C337.374 21.679 337.572 21.8324 337.723 22.017C337.876 22.1989 337.993 22.3778 338.072 22.554H338.128V19.2727H339.939V28H338.149V26.9517H338.072C337.987 27.1335 337.866 27.3139 337.71 27.4929C337.557 27.669 337.357 27.8153 337.109 27.9318C336.865 28.0483 336.567 28.1065 336.214 28.1065ZM336.79 26.6619C337.082 26.6619 337.33 26.5824 337.531 26.4233C337.736 26.2614 337.892 26.0355 338 25.7457C338.111 25.456 338.166 25.1165 338.166 24.7273C338.166 24.3381 338.112 24 338.004 23.7131C337.896 23.4261 337.74 23.2045 337.536 23.0483C337.331 22.892 337.082 22.8139 336.79 22.8139C336.491 22.8139 336.24 22.8949 336.036 23.0568C335.831 23.2187 335.676 23.4432 335.571 23.7301C335.466 24.017 335.413 24.3494 335.413 24.7273C335.413 25.108 335.466 25.4446 335.571 25.7372C335.679 26.027 335.834 26.2543 336.036 26.419C336.24 26.581 336.491 26.6619 336.79 26.6619Z" fill="black"/>
<rect x="398" y="11" width="83" height="25" fill="#D9D9D9"/>
<path d="M422.493 21.7827C422.459 21.4389 422.313 21.1719 422.054 20.9815C421.795 20.7912 421.445 20.696 421.001 20.696C420.7 20.696 420.446 20.7386 420.239 20.8239C420.031 20.9062 419.872 21.0213 419.761 21.169C419.653 21.3168 419.599 21.4844 419.599 21.6719C419.594 21.8281 419.626 21.9645 419.697 22.081C419.771 22.1974 419.872 22.2983 420 22.3835C420.128 22.4659 420.276 22.5384 420.443 22.6009C420.611 22.6605 420.79 22.7116 420.98 22.7543L421.764 22.9418C422.145 23.027 422.494 23.1406 422.812 23.2827C423.131 23.4247 423.406 23.5994 423.639 23.8068C423.872 24.0142 424.053 24.2585 424.18 24.5398C424.311 24.821 424.378 25.1435 424.381 25.5071C424.378 26.0412 424.241 26.5043 423.972 26.8963C423.705 27.2855 423.318 27.5881 422.812 27.804C422.31 28.017 421.703 28.1236 420.993 28.1236C420.288 28.1236 419.675 28.0156 419.152 27.7997C418.632 27.5838 418.226 27.2642 417.933 26.8409C417.643 26.4148 417.491 25.8878 417.477 25.2599H419.263C419.283 25.5526 419.366 25.7969 419.514 25.9929C419.665 26.1861 419.865 26.3324 420.115 26.4318C420.368 26.5284 420.653 26.5767 420.972 26.5767C421.284 26.5767 421.555 26.5312 421.786 26.4403C422.018 26.3494 422.199 26.223 422.327 26.0611C422.455 25.8991 422.518 25.7131 422.518 25.5028C422.518 25.3068 422.46 25.142 422.344 25.0085C422.23 24.875 422.063 24.7614 421.841 24.6676C421.622 24.5739 421.354 24.4886 421.036 24.4119L420.085 24.1733C419.349 23.9943 418.768 23.7145 418.342 23.3338C417.916 22.9531 417.705 22.4403 417.707 21.7955C417.705 21.267 417.845 20.8054 418.129 20.4105C418.416 20.0156 418.81 19.7074 419.31 19.4858C419.81 19.2642 420.378 19.1534 421.014 19.1534C421.662 19.1534 422.227 19.2642 422.71 19.4858C423.196 19.7074 423.574 20.0156 423.844 20.4105C424.114 20.8054 424.253 21.2628 424.261 21.7827H422.493ZM425.588 28V21.4545H427.403V28H425.588ZM426.5 20.6108C426.23 20.6108 425.998 20.5213 425.805 20.3423C425.615 20.1605 425.52 19.9432 425.52 19.6903C425.52 19.4403 425.615 19.2259 425.805 19.0469C425.998 18.8651 426.23 18.7741 426.5 18.7741C426.77 18.7741 427 18.8651 427.19 19.0469C427.383 19.2259 427.48 19.4403 427.48 19.6903C427.48 19.9432 427.383 20.1605 427.19 20.3423C427 20.5213 426.77 20.6108 426.5 20.6108ZM431.806 30.5909C431.218 30.5909 430.714 30.5099 430.293 30.348C429.876 30.1889 429.543 29.9716 429.296 29.696C429.049 29.4205 428.888 29.1108 428.815 28.767L430.494 28.5412C430.545 28.6719 430.626 28.794 430.737 28.9077C430.847 29.0213 430.994 29.1122 431.175 29.1804C431.36 29.2514 431.585 29.2869 431.849 29.2869C432.244 29.2869 432.569 29.1903 432.825 28.9972C433.083 28.8068 433.212 28.4872 433.212 28.0384V26.8409H433.136C433.056 27.0227 432.937 27.1946 432.778 27.3565C432.619 27.5185 432.414 27.6506 432.164 27.7528C431.914 27.8551 431.616 27.9062 431.269 27.9062C430.778 27.9062 430.33 27.7926 429.927 27.5653C429.526 27.3352 429.207 26.9844 428.968 26.5128C428.732 26.0384 428.614 25.4389 428.614 24.7145C428.614 23.973 428.735 23.3537 428.977 22.8565C429.218 22.3594 429.539 21.9872 429.94 21.7401C430.343 21.4929 430.785 21.3693 431.265 21.3693C431.631 21.3693 431.938 21.4318 432.185 21.5568C432.433 21.679 432.631 21.8324 432.782 22.017C432.935 22.1989 433.053 22.3778 433.136 22.554H433.204V21.4545H435.006V28.0639C435.006 28.6207 434.87 29.0866 434.597 29.4616C434.325 29.8366 433.947 30.1179 433.464 30.3054C432.984 30.4957 432.431 30.5909 431.806 30.5909ZM431.844 26.5426C432.137 26.5426 432.384 26.4702 432.586 26.3253C432.79 26.1776 432.947 25.9673 433.055 25.6946C433.165 25.419 433.221 25.0895 433.221 24.706C433.221 24.3224 433.167 23.9901 433.059 23.7088C432.951 23.4247 432.795 23.2045 432.59 23.0483C432.386 22.892 432.137 22.8139 431.844 22.8139C431.546 22.8139 431.295 22.8949 431.09 23.0568C430.886 23.2159 430.731 23.4375 430.626 23.7216C430.521 24.0057 430.468 24.3338 430.468 24.706C430.468 25.0838 430.521 25.4105 430.626 25.6861C430.734 25.9588 430.888 26.1705 431.09 26.321C431.295 26.4687 431.546 26.5426 431.844 26.5426ZM438.266 24.2159V28H436.451V21.4545H438.181V22.6094H438.258C438.403 22.2287 438.646 21.9276 438.987 21.706C439.327 21.4815 439.741 21.3693 440.227 21.3693C440.681 21.3693 441.077 21.4688 441.415 21.6676C441.754 21.8665 442.016 22.1506 442.204 22.5199C442.391 22.8864 442.485 23.3239 442.485 23.8324V28H440.67V24.1562C440.673 23.7557 440.57 23.4432 440.363 23.2188C440.156 22.9915 439.87 22.8778 439.506 22.8778C439.262 22.8778 439.046 22.9304 438.859 23.0355C438.674 23.1406 438.529 23.294 438.424 23.4957C438.322 23.6946 438.269 23.9347 438.266 24.2159ZM452.118 19.2727H453.963V24.9403C453.963 25.5767 453.811 26.1335 453.507 26.6108C453.206 27.0881 452.784 27.4602 452.241 27.7273C451.699 27.9915 451.067 28.1236 450.345 28.1236C449.621 28.1236 448.987 27.9915 448.445 27.7273C447.902 27.4602 447.48 27.0881 447.179 26.6108C446.878 26.1335 446.727 25.5767 446.727 24.9403V19.2727H448.572V24.7827C448.572 25.1151 448.645 25.4105 448.79 25.669C448.938 25.9276 449.145 26.1307 449.412 26.2784C449.679 26.4261 449.99 26.5 450.345 26.5C450.703 26.5 451.014 26.4261 451.278 26.2784C451.545 26.1307 451.751 25.9276 451.896 25.669C452.044 25.4105 452.118 25.1151 452.118 24.7827V19.2727ZM455.447 30.4545V21.4545H457.237V22.554H457.318C457.397 22.3778 457.512 22.1989 457.663 22.017C457.816 21.8324 458.015 21.679 458.26 21.5568C458.507 21.4318 458.814 21.3693 459.18 21.3693C459.657 21.3693 460.098 21.4943 460.501 21.7443C460.904 21.9915 461.227 22.3651 461.468 22.8651C461.71 23.3622 461.831 23.9858 461.831 24.7358C461.831 25.4659 461.713 26.0824 461.477 26.5852C461.244 27.0852 460.926 27.4645 460.522 27.723C460.122 27.9787 459.673 28.1065 459.176 28.1065C458.824 28.1065 458.524 28.0483 458.277 27.9318C458.032 27.8153 457.832 27.669 457.676 27.4929C457.52 27.3139 457.4 27.1335 457.318 26.9517H457.262V30.4545H455.447ZM457.224 24.7273C457.224 25.1165 457.278 25.456 457.386 25.7457C457.494 26.0355 457.65 26.2614 457.855 26.4233C458.059 26.5824 458.308 26.6619 458.6 26.6619C458.896 26.6619 459.146 26.581 459.35 26.419C459.555 26.2543 459.71 26.027 459.815 25.7372C459.923 25.4446 459.977 25.108 459.977 24.7273C459.977 24.3494 459.924 24.017 459.819 23.7301C459.714 23.4432 459.559 23.2187 459.355 23.0568C459.15 22.8949 458.899 22.8139 458.6 22.8139C458.305 22.8139 458.055 22.892 457.85 23.0483C457.649 23.2045 457.494 23.4261 457.386 23.7131C457.278 24 457.224 24.3381 457.224 24.7273Z" fill="black"/>
<rect x="254" y="72" width="156" height="114" rx="5" fill="#F6F6F6"/>
<mask id="path-7-inside-1_25_186" fill="white">
<path d="M254 77C254 74.2386 256.239 72 259 72H405C407.761 72 410 74.2386 410 77V100H254V77Z"/>
</mask>
<path d="M254 77C254 74.2386 256.239 72 259 72H405C407.761 72 410 74.2386 410 77V100H254V77Z" fill="#F6F6F6"/>
<path d="M253 77C253 73.6863 255.686 71 259 71H405C408.314 71 411 73.6863 411 77H409C409 74.7909 407.209 73 405 73H259C256.791 73 255 74.7909 255 77H253ZM410 100H254H410ZM253 100V77C253 73.6863 255.686 71 259 71V73C256.791 73 255 74.7909 255 77V100H253ZM405 71C408.314 71 411 73.6863 411 77V100H409V77C409 74.7909 407.209 73 405 73V71Z" fill="black" mask="url(#path-7-inside-1_25_186)"/>
<path d="M270.852 85C270.774 84.7609 270.671 84.5466 270.543 84.3572C270.418 84.1655 270.268 84.0021 270.092 83.8672C269.92 83.7322 269.723 83.6293 269.503 83.5582C269.283 83.4872 269.041 83.4517 268.778 83.4517C268.348 83.4517 267.956 83.563 267.603 83.7855C267.25 84.008 266.97 84.3359 266.761 84.7692C266.553 85.2024 266.449 85.7339 266.449 86.3636C266.449 86.9934 266.554 87.5249 266.765 87.9581C266.976 88.3913 267.261 88.7192 267.621 88.9418C267.981 89.1643 268.385 89.2756 268.835 89.2756C269.252 89.2756 269.619 89.1868 269.936 89.0092C270.256 88.8293 270.504 88.576 270.682 88.2493C270.862 87.9202 270.952 87.5331 270.952 87.0881L271.222 87.1449H269.034V86.3636H271.804V87.1449C271.804 87.7438 271.676 88.2647 271.42 88.7074C271.167 89.1501 270.817 89.4934 270.369 89.7372C269.924 89.9787 269.413 90.0994 268.835 90.0994C268.191 90.0994 267.625 89.9479 267.138 89.6449C266.652 89.3419 266.274 88.911 266.001 88.3523C265.732 87.7936 265.597 87.1307 265.597 86.3636C265.597 85.7884 265.674 85.2711 265.827 84.8118C265.984 84.3501 266.204 83.9571 266.488 83.6328C266.772 83.3085 267.108 83.0599 267.496 82.8871C267.885 82.7143 268.312 82.6278 268.778 82.6278C269.162 82.6278 269.519 82.6858 269.851 82.8018C270.185 82.9155 270.482 83.0777 270.742 83.2884C271.005 83.4967 271.224 83.7464 271.399 84.0376C271.574 84.3265 271.695 84.6473 271.761 85H270.852ZM274.804 90.1278C274.458 90.1278 274.144 90.0627 273.863 89.9325C273.581 89.8 273.357 89.6094 273.192 89.3608C273.026 89.1098 272.943 88.8068 272.943 88.4517C272.943 88.1392 273.005 87.8859 273.128 87.6918C273.251 87.4953 273.415 87.3414 273.621 87.2301C273.827 87.1188 274.055 87.036 274.303 86.9815C274.554 86.9247 274.806 86.8797 275.059 86.8466C275.391 86.804 275.66 86.772 275.866 86.7507C276.074 86.727 276.225 86.688 276.32 86.6335C276.417 86.5791 276.466 86.4844 276.466 86.3494V86.321C276.466 85.9706 276.37 85.6984 276.178 85.5043C275.989 85.3101 275.701 85.2131 275.315 85.2131C274.915 85.2131 274.601 85.3007 274.374 85.4759C274.147 85.651 273.987 85.8381 273.895 86.0369L273.099 85.7528C273.241 85.4214 273.431 85.1634 273.667 84.9787C273.907 84.7917 274.167 84.6615 274.449 84.5881C274.733 84.5123 275.012 84.4744 275.287 84.4744C275.462 84.4744 275.663 84.4957 275.89 84.5384C276.12 84.5786 276.341 84.6626 276.555 84.7905C276.77 84.9183 276.949 85.1113 277.091 85.3693C277.233 85.6274 277.304 85.973 277.304 86.4062V90H276.466V89.2614H276.423C276.366 89.3797 276.272 89.5064 276.139 89.6413C276.006 89.7763 275.83 89.8911 275.61 89.9858C275.39 90.0805 275.121 90.1278 274.804 90.1278ZM274.932 89.375C275.263 89.375 275.542 89.3099 275.77 89.1797C275.999 89.0495 276.172 88.8814 276.288 88.6754C276.407 88.4695 276.466 88.2528 276.466 88.0256V87.2585C276.43 87.3011 276.352 87.3402 276.231 87.3757C276.113 87.4089 275.976 87.4384 275.819 87.4645C275.666 87.4882 275.515 87.5095 275.368 87.5284C275.224 87.545 275.107 87.5592 275.017 87.571C274.799 87.5994 274.595 87.6456 274.406 87.7095C274.219 87.7711 274.068 87.8646 273.952 87.9901C273.838 88.1132 273.781 88.2812 273.781 88.4943C273.781 88.7855 273.889 89.0057 274.104 89.1548C274.322 89.3016 274.598 89.375 274.932 89.375ZM281.206 84.5455V85.2557H278.379V84.5455H281.206ZM279.203 83.2386H280.041V88.4375C280.041 88.6742 280.075 88.8518 280.144 88.9702C280.215 89.0862 280.305 89.1643 280.414 89.2045C280.525 89.2424 280.642 89.2614 280.765 89.2614C280.858 89.2614 280.933 89.2566 280.993 89.2472C281.052 89.2353 281.099 89.2259 281.135 89.2188L281.305 89.9716C281.248 89.9929 281.169 90.0142 281.067 90.0355C280.965 90.0592 280.836 90.071 280.68 90.071C280.443 90.071 280.211 90.0201 279.984 89.9183C279.759 89.8165 279.572 89.6615 279.423 89.4531C279.276 89.2448 279.203 88.982 279.203 88.6648V83.2386ZM284.695 90.1136C284.169 90.1136 283.716 89.9976 283.335 89.7656C282.956 89.5312 282.663 89.2045 282.457 88.7855C282.254 88.3641 282.152 87.8741 282.152 87.3153C282.152 86.7566 282.254 86.2642 282.457 85.8381C282.663 85.4096 282.95 85.0758 283.317 84.8366C283.686 84.5952 284.117 84.4744 284.609 84.4744C284.893 84.4744 285.174 84.5218 285.451 84.6165C285.728 84.7112 285.98 84.8651 286.207 85.0781C286.435 85.2888 286.616 85.5682 286.751 85.9162C286.886 86.2642 286.953 86.6927 286.953 87.2017V87.5568H282.749V86.8324H286.101C286.101 86.5246 286.039 86.25 285.916 86.0085C285.795 85.767 285.623 85.5765 285.398 85.4368C285.175 85.2971 284.912 85.2273 284.609 85.2273C284.276 85.2273 283.987 85.3101 283.743 85.4759C283.501 85.6392 283.316 85.8523 283.185 86.1151C283.055 86.3778 282.99 86.6596 282.99 86.9602V87.4432C282.99 87.8551 283.061 88.2043 283.203 88.4908C283.348 88.7749 283.548 88.9915 283.803 89.1406C284.059 89.2874 284.356 89.3608 284.695 89.3608C284.915 89.3608 285.114 89.33 285.291 89.2685C285.471 89.2045 285.626 89.1098 285.756 88.9844C285.887 88.8565 285.987 88.6979 286.058 88.5085L286.868 88.7358C286.783 89.0104 286.639 89.2519 286.438 89.4602C286.237 89.6662 285.988 89.8272 285.692 89.9432C285.397 90.0568 285.064 90.1136 284.695 90.1136ZM289.464 90L287.802 84.5455H288.683L289.862 88.7216H289.918L291.083 84.5455H291.978L293.129 88.7074H293.185L294.364 84.5455H295.245L293.583 90H292.759L291.566 85.8097H291.481L290.288 90H289.464ZM297.958 90.1278C297.612 90.1278 297.299 90.0627 297.017 89.9325C296.735 89.8 296.512 89.6094 296.346 89.3608C296.18 89.1098 296.097 88.8068 296.097 88.4517C296.097 88.1392 296.159 87.8859 296.282 87.6918C296.405 87.4953 296.57 87.3414 296.776 87.2301C296.982 87.1188 297.209 87.036 297.457 86.9815C297.708 86.9247 297.96 86.8797 298.214 86.8466C298.545 86.804 298.814 86.772 299.02 86.7507C299.228 86.727 299.38 86.688 299.474 86.6335C299.571 86.5791 299.62 86.4844 299.62 86.3494V86.321C299.62 85.9706 299.524 85.6984 299.332 85.5043C299.143 85.3101 298.855 85.2131 298.469 85.2131C298.069 85.2131 297.756 85.3007 297.528 85.4759C297.301 85.651 297.141 85.8381 297.049 86.0369L296.254 85.7528C296.396 85.4214 296.585 85.1634 296.822 84.9787C297.061 84.7917 297.321 84.6615 297.603 84.5881C297.887 84.5123 298.166 84.4744 298.441 84.4744C298.616 84.4744 298.817 84.4957 299.045 84.5384C299.274 84.5786 299.496 84.6626 299.709 84.7905C299.924 84.9183 300.103 85.1113 300.245 85.3693C300.387 85.6274 300.458 85.973 300.458 86.4062V90H299.62V89.2614H299.577C299.521 89.3797 299.426 89.5064 299.293 89.6413C299.161 89.7763 298.984 89.8911 298.764 89.9858C298.544 90.0805 298.275 90.1278 297.958 90.1278ZM298.086 89.375C298.417 89.375 298.697 89.3099 298.924 89.1797C299.154 89.0495 299.326 88.8814 299.442 88.6754C299.561 88.4695 299.62 88.2528 299.62 88.0256V87.2585C299.585 87.3011 299.506 87.3402 299.386 87.3757C299.267 87.4089 299.13 87.4384 298.974 87.4645C298.82 87.4882 298.67 87.5095 298.523 87.5284C298.378 87.545 298.261 87.5592 298.171 87.571C297.953 87.5994 297.75 87.6456 297.56 87.7095C297.373 87.7711 297.222 87.8646 297.106 87.9901C296.992 88.1132 296.935 88.2812 296.935 88.4943C296.935 88.7855 297.043 89.0057 297.259 89.1548C297.476 89.3016 297.752 89.375 298.086 89.375ZM302.332 92.0455C302.19 92.0455 302.064 92.0336 301.952 92.0099C301.841 91.9886 301.764 91.9673 301.721 91.946L301.934 91.2074C302.138 91.2595 302.318 91.2784 302.474 91.2642C302.631 91.25 302.769 91.1802 302.89 91.0547C303.013 90.9316 303.125 90.7315 303.227 90.4545L303.383 90.0284L301.366 84.5455H302.275L303.781 88.892H303.838L305.344 84.5455H306.253L303.937 90.7955C303.833 91.0772 303.704 91.3104 303.55 91.495C303.396 91.6821 303.218 91.8205 303.014 91.9105C302.813 92.0005 302.586 92.0455 302.332 92.0455ZM308.449 82.7273V83.3665C308.449 83.5606 308.414 83.7678 308.343 83.9879C308.274 84.2057 308.172 84.4176 308.037 84.6236C307.905 84.8272 307.744 85.0047 307.554 85.1562L307.1 84.7869C307.249 84.5739 307.378 84.3525 307.487 84.1229C307.598 83.8909 307.654 83.6435 307.654 83.3807V82.7273H308.449ZM312.648 85.767L311.895 85.9801C311.848 85.8546 311.778 85.7327 311.686 85.6143C311.596 85.4936 311.473 85.3942 311.317 85.3161C311.16 85.2379 310.96 85.1989 310.716 85.1989C310.383 85.1989 310.104 85.2758 309.882 85.4297C309.662 85.5812 309.552 85.7741 309.552 86.0085C309.552 86.2169 309.627 86.3814 309.779 86.5021C309.93 86.6229 310.167 86.7235 310.489 86.804L311.299 87.0028C311.787 87.1212 312.15 87.3023 312.389 87.5462C312.628 87.7876 312.748 88.099 312.748 88.4801C312.748 88.7926 312.658 89.072 312.478 89.3182C312.3 89.5644 312.052 89.7585 311.732 89.9006C311.412 90.0426 311.041 90.1136 310.617 90.1136C310.061 90.1136 309.6 89.9929 309.236 89.7514C308.871 89.5099 308.64 89.1572 308.543 88.6932L309.339 88.4943C309.414 88.7879 309.558 89.008 309.768 89.1548C309.981 89.3016 310.26 89.375 310.603 89.375C310.993 89.375 311.304 89.2921 311.533 89.1264C311.765 88.9583 311.881 88.7571 311.881 88.5227C311.881 88.3333 311.815 88.1747 311.682 88.0469C311.55 87.9167 311.346 87.8196 311.072 87.7557L310.162 87.5426C309.663 87.4242 309.296 87.2408 309.062 86.9922C308.83 86.7412 308.714 86.4276 308.714 86.0511C308.714 85.7434 308.8 85.4711 308.973 85.2344C309.148 84.9976 309.386 84.8118 309.687 84.6768C309.99 84.5419 310.333 84.4744 310.716 84.4744C311.256 84.4744 311.68 84.5928 311.988 84.8295C312.298 85.0663 312.518 85.3788 312.648 85.767ZM316.935 90V82.7273H319.393C319.963 82.7273 320.43 82.8303 320.792 83.0362C321.156 83.2398 321.426 83.5156 321.602 83.8636C321.777 84.2116 321.864 84.5999 321.864 85.0284C321.864 85.4569 321.777 85.8464 321.602 86.1967C321.429 86.5471 321.161 86.8265 320.799 87.0348C320.437 87.2408 319.973 87.3438 319.407 87.3438H317.646V86.5625H319.379C319.769 86.5625 320.083 86.495 320.32 86.3601C320.556 86.2251 320.728 86.0429 320.835 85.8132C320.943 85.5812 320.998 85.3196 320.998 85.0284C320.998 84.7372 320.943 84.4768 320.835 84.2472C320.728 84.0175 320.555 83.8376 320.316 83.7074C320.077 83.5748 319.76 83.5085 319.364 83.5085H317.816V90H316.935ZM324.775 90.1278C324.429 90.1278 324.115 90.0627 323.833 89.9325C323.552 89.8 323.328 89.6094 323.162 89.3608C322.997 89.1098 322.914 88.8068 322.914 88.4517C322.914 88.1392 322.975 87.8859 323.098 87.6918C323.221 87.4953 323.386 87.3414 323.592 87.2301C323.798 87.1188 324.025 87.036 324.274 86.9815C324.525 86.9247 324.777 86.8797 325.03 86.8466C325.362 86.804 325.63 86.772 325.836 86.7507C326.045 86.727 326.196 86.688 326.291 86.6335C326.388 86.5791 326.436 86.4844 326.436 86.3494V86.321C326.436 85.9706 326.341 85.6984 326.149 85.5043C325.959 85.3101 325.672 85.2131 325.286 85.2131C324.886 85.2131 324.572 85.3007 324.345 85.4759C324.118 85.651 323.958 85.8381 323.865 86.0369L323.07 85.7528C323.212 85.4214 323.401 85.1634 323.638 84.9787C323.877 84.7917 324.138 84.6615 324.419 84.5881C324.703 84.5123 324.983 84.4744 325.257 84.4744C325.433 84.4744 325.634 84.4957 325.861 84.5384C326.091 84.5786 326.312 84.6626 326.525 84.7905C326.741 84.9183 326.919 85.1113 327.061 85.3693C327.203 85.6274 327.275 85.973 327.275 86.4062V90H326.436V89.2614H326.394C326.337 89.3797 326.242 89.5064 326.11 89.6413C325.977 89.7763 325.801 89.8911 325.581 89.9858C325.36 90.0805 325.092 90.1278 324.775 90.1278ZM324.902 89.375C325.234 89.375 325.513 89.3099 325.74 89.1797C325.97 89.0495 326.143 88.8814 326.259 88.6754C326.377 88.4695 326.436 88.2528 326.436 88.0256V87.2585C326.401 87.3011 326.323 87.3402 326.202 87.3757C326.084 87.4089 325.946 87.4384 325.79 87.4645C325.636 87.4882 325.486 87.5095 325.339 87.5284C325.195 87.545 325.078 87.5592 324.988 87.571C324.77 87.5994 324.566 87.6456 324.377 87.7095C324.19 87.7711 324.038 87.8646 323.922 87.9901C323.809 88.1132 323.752 88.2812 323.752 88.4943C323.752 88.7855 323.859 89.0057 324.075 89.1548C324.293 89.3016 324.569 89.375 324.902 89.375ZM331.176 84.5455V85.2557H328.35V84.5455H331.176ZM329.173 83.2386H330.012V88.4375C330.012 88.6742 330.046 88.8518 330.115 88.9702C330.186 89.0862 330.276 89.1643 330.384 89.2045C330.496 89.2424 330.613 89.2614 330.736 89.2614C330.828 89.2614 330.904 89.2566 330.963 89.2472C331.022 89.2353 331.07 89.2259 331.105 89.2188L331.276 89.9716C331.219 89.9929 331.14 90.0142 331.038 90.0355C330.936 90.0592 330.807 90.071 330.651 90.071C330.414 90.071 330.182 90.0201 329.955 89.9183C329.73 89.8165 329.543 89.6615 329.394 89.4531C329.247 89.2448 329.173 88.982 329.173 88.6648V83.2386ZM333.392 86.7188V90H332.554V82.7273H333.392V85.3977H333.463C333.591 85.116 333.783 84.8923 334.039 84.7266C334.297 84.5585 334.64 84.4744 335.068 84.4744C335.44 84.4744 335.766 84.549 336.045 84.6982C336.324 84.8449 336.541 85.071 336.695 85.3764C336.851 85.6795 336.929 86.0653 336.929 86.5341V90H336.091V86.5909C336.091 86.1577 335.979 85.8227 335.754 85.5859C335.531 85.3468 335.222 85.2273 334.827 85.2273C334.552 85.2273 334.306 85.2853 334.088 85.4013C333.873 85.5173 333.702 85.6866 333.577 85.9091C333.454 86.1316 333.392 86.4015 333.392 86.7188Z" fill="black"/>
<rect x="80" y="72" width="156" height="114" rx="5" fill="#F6F6F6"/>
<mask id="path-11-inside-2_25_186" fill="white">
<path d="M80 77C80 74.2386 82.2386 72 85 72H231C233.761 72 236 74.2386 236 77V100H80V77Z"/>
</mask>
<path d="M80 77C80 74.2386 82.2386 72 85 72H231C233.761 72 236 74.2386 236 77V100H80V77Z" fill="#F6F6F6"/>
<path d="M79 77C79 73.6863 81.6863 71 85 71H231C234.314 71 237 73.6863 237 77H235C235 74.7909 233.209 73 231 73H85C82.7909 73 81 74.7909 81 77H79ZM236 100H80H236ZM79 100V77C79 73.6863 81.6863 71 85 71V73C82.7909 73 81 74.7909 81 77V100H79ZM231 71C234.314 71 237 73.6863 237 77V100H235V77C235 74.7909 233.209 73 231 73V71Z" fill="black" mask="url(#path-11-inside-2_25_186)"/>
<path d="M92.483 83.5085V82.7273H97.9375V83.5085H95.6506V90H94.7699V83.5085H92.483ZM100.021 86.7188V90H99.1831V82.7273H100.021V85.3977H100.092C100.22 85.116 100.412 84.8923 100.667 84.7266C100.925 84.5585 101.269 84.4744 101.697 84.4744C102.069 84.4744 102.394 84.549 102.674 84.6982C102.953 84.8449 103.17 85.071 103.324 85.3764C103.48 85.6795 103.558 86.0653 103.558 86.5341V90H102.72V86.5909C102.72 86.1577 102.608 85.8227 102.383 85.5859C102.16 85.3468 101.851 85.2273 101.456 85.2273C101.181 85.2273 100.935 85.2853 100.717 85.4013C100.502 85.5173 100.331 85.6866 100.206 85.9091C100.083 86.1316 100.021 86.4015 100.021 86.7188ZM107.378 90.1136C106.853 90.1136 106.399 89.9976 106.018 89.7656C105.639 89.5312 105.347 89.2045 105.141 88.7855C104.937 88.3641 104.836 87.8741 104.836 87.3153C104.836 86.7566 104.937 86.2642 105.141 85.8381C105.347 85.4096 105.633 85.0758 106 84.8366C106.37 84.5952 106.801 84.4744 107.293 84.4744C107.577 84.4744 107.858 84.5218 108.135 84.6165C108.412 84.7112 108.664 84.8651 108.891 85.0781C109.118 85.2888 109.299 85.5682 109.434 85.9162C109.569 86.2642 109.637 86.6927 109.637 87.2017V87.5568H105.432V86.8324H108.784C108.784 86.5246 108.723 86.25 108.6 86.0085C108.479 85.767 108.306 85.5765 108.081 85.4368C107.859 85.2971 107.596 85.2273 107.293 85.2273C106.959 85.2273 106.67 85.3101 106.426 85.4759C106.185 85.6392 105.999 85.8523 105.869 86.1151C105.739 86.3778 105.674 86.6596 105.674 86.9602V87.4432C105.674 87.8551 105.745 88.2043 105.887 88.4908C106.031 88.7749 106.231 88.9915 106.487 89.1406C106.743 89.2874 107.04 89.3608 107.378 89.3608C107.598 89.3608 107.797 89.33 107.975 89.2685C108.155 89.2045 108.31 89.1098 108.44 88.9844C108.57 88.8565 108.671 88.6979 108.742 88.5085L109.551 88.7358C109.466 89.0104 109.323 89.2519 109.122 89.4602C108.921 89.6662 108.672 89.8272 108.376 89.9432C108.08 90.0568 107.748 90.1136 107.378 90.1136ZM113.838 90V82.7273H116.38C116.887 82.7273 117.305 82.8149 117.634 82.9901C117.963 83.1629 118.208 83.3961 118.369 83.6896C118.53 83.9808 118.61 84.304 118.61 84.6591C118.61 84.9716 118.555 85.2296 118.444 85.4332C118.335 85.6368 118.19 85.7978 118.01 85.9162C117.833 86.0346 117.64 86.1222 117.431 86.179V86.25C117.654 86.2642 117.878 86.3423 118.103 86.4844C118.328 86.6264 118.516 86.83 118.667 87.0952C118.819 87.3603 118.895 87.6847 118.895 88.0682C118.895 88.4328 118.812 88.7607 118.646 89.0518C118.48 89.343 118.219 89.5739 117.861 89.7443C117.504 89.9148 117.038 90 116.466 90H113.838ZM114.718 89.2188H116.466C117.041 89.2188 117.449 89.1075 117.691 88.8849C117.935 88.66 118.056 88.3878 118.056 88.0682C118.056 87.822 117.994 87.5947 117.868 87.3864C117.743 87.1757 117.564 87.0076 117.332 86.8821C117.1 86.7543 116.825 86.6903 116.508 86.6903H114.718V89.2188ZM114.718 85.9233H116.352C116.617 85.9233 116.856 85.8712 117.069 85.767C117.285 85.6629 117.455 85.5161 117.581 85.3267C117.708 85.1373 117.772 84.9148 117.772 84.6591C117.772 84.3395 117.661 84.0684 117.439 83.8459C117.216 83.621 116.863 83.5085 116.38 83.5085H114.718V85.9233ZM123.665 87.7699V84.5455H124.504V90H123.665V89.0767H123.609C123.481 89.3537 123.282 89.5893 123.012 89.7834C122.742 89.9751 122.401 90.071 121.989 90.071C121.648 90.071 121.345 89.9964 121.08 89.8473C120.815 89.6958 120.607 89.4685 120.455 89.1655C120.304 88.8601 120.228 88.4754 120.228 88.0114V84.5455H121.066V87.9545C121.066 88.3523 121.177 88.6695 121.4 88.9062C121.625 89.143 121.911 89.2614 122.259 89.2614C122.468 89.2614 122.679 89.2081 122.895 89.1016C123.113 88.995 123.295 88.8317 123.442 88.6115C123.591 88.3913 123.665 88.1108 123.665 87.7699ZM129.902 85.767L129.149 85.9801C129.102 85.8546 129.032 85.7327 128.94 85.6143C128.85 85.4936 128.727 85.3942 128.57 85.3161C128.414 85.2379 128.214 85.1989 127.97 85.1989C127.637 85.1989 127.358 85.2758 127.136 85.4297C126.916 85.5812 126.806 85.7741 126.806 86.0085C126.806 86.2169 126.881 86.3814 127.033 86.5021C127.184 86.6229 127.421 86.7235 127.743 86.804L128.553 87.0028C129.04 87.1212 129.404 87.3023 129.643 87.5462C129.882 87.7876 130.002 88.099 130.002 88.4801C130.002 88.7926 129.912 89.072 129.732 89.3182C129.554 89.5644 129.306 89.7585 128.986 89.9006C128.666 90.0426 128.295 90.1136 127.871 90.1136C127.315 90.1136 126.854 89.9929 126.49 89.7514C126.125 89.5099 125.894 89.1572 125.797 88.6932L126.593 88.4943C126.668 88.7879 126.811 89.008 127.022 89.1548C127.235 89.3016 127.513 89.375 127.857 89.375C128.247 89.375 128.557 89.2921 128.787 89.1264C129.019 88.9583 129.135 88.7571 129.135 88.5227C129.135 88.3333 129.069 88.1747 128.936 88.0469C128.804 87.9167 128.6 87.8196 128.325 87.7557L127.416 87.5426C126.917 87.4242 126.55 87.2408 126.316 86.9922C126.084 86.7412 125.968 86.4276 125.968 86.0511C125.968 85.7434 126.054 85.4711 126.227 85.2344C126.402 84.9976 126.64 84.8118 126.941 84.6768C127.244 84.5419 127.587 84.4744 127.97 84.4744C128.51 84.4744 128.934 84.5928 129.242 84.8295C129.552 85.0663 129.772 85.3788 129.902 85.767ZM131.263 90V84.5455H132.101V90H131.263ZM131.689 83.6364C131.526 83.6364 131.385 83.5807 131.267 83.4695C131.151 83.3582 131.093 83.2244 131.093 83.0682C131.093 82.9119 131.151 82.7782 131.267 82.6669C131.385 82.5556 131.526 82.5 131.689 82.5C131.853 82.5 131.992 82.5556 132.108 82.6669C132.227 82.7782 132.286 82.9119 132.286 83.0682C132.286 83.2244 132.227 83.3582 132.108 83.4695C131.992 83.5807 131.853 83.6364 131.689 83.6364ZM134.474 86.7188V90H133.636V84.5455H134.446V85.3977H134.517C134.645 85.1207 134.839 84.8982 135.099 84.7301C135.36 84.5597 135.696 84.4744 136.108 84.4744C136.477 84.4744 136.8 84.5502 137.077 84.7017C137.354 84.8509 137.57 85.0781 137.724 85.3835C137.877 85.6866 137.954 86.0701 137.954 86.5341V90H137.116V86.5909C137.116 86.1624 137.005 85.8286 136.782 85.5895C136.56 85.348 136.255 85.2273 135.866 85.2273C135.599 85.2273 135.36 85.2853 135.149 85.4013C134.941 85.5173 134.776 85.6866 134.655 85.9091C134.535 86.1316 134.474 86.4015 134.474 86.7188ZM141.773 90.1136C141.247 90.1136 140.794 89.9976 140.413 89.7656C140.034 89.5312 139.741 89.2045 139.536 88.7855C139.332 88.3641 139.23 87.8741 139.23 87.3153C139.23 86.7566 139.332 86.2642 139.536 85.8381C139.741 85.4096 140.028 85.0758 140.395 84.8366C140.764 84.5952 141.195 84.4744 141.688 84.4744C141.972 84.4744 142.252 84.5218 142.529 84.6165C142.806 84.7112 143.058 84.8651 143.286 85.0781C143.513 85.2888 143.694 85.5682 143.829 85.9162C143.964 86.2642 144.031 86.6927 144.031 87.2017V87.5568H139.827V86.8324H143.179C143.179 86.5246 143.117 86.25 142.994 86.0085C142.874 85.767 142.701 85.5765 142.476 85.4368C142.253 85.2971 141.991 85.2273 141.688 85.2273C141.354 85.2273 141.065 85.3101 140.821 85.4759C140.58 85.6392 140.394 85.8523 140.263 86.1151C140.133 86.3778 140.068 86.6596 140.068 86.9602V87.4432C140.068 87.8551 140.139 88.2043 140.281 88.4908C140.426 88.7749 140.626 88.9915 140.881 89.1406C141.137 89.2874 141.434 89.3608 141.773 89.3608C141.993 89.3608 142.192 89.33 142.369 89.2685C142.549 89.2045 142.704 89.1098 142.835 88.9844C142.965 88.8565 143.065 88.6979 143.136 88.5085L143.946 88.7358C143.861 89.0104 143.718 89.2519 143.516 89.4602C143.315 89.6662 143.067 89.8272 142.771 89.9432C142.475 90.0568 142.142 90.1136 141.773 90.1136ZM149.17 85.767L148.417 85.9801C148.37 85.8546 148.3 85.7327 148.207 85.6143C148.117 85.4936 147.994 85.3942 147.838 85.3161C147.682 85.2379 147.482 85.1989 147.238 85.1989C146.904 85.1989 146.626 85.2758 146.403 85.4297C146.183 85.5812 146.073 85.7741 146.073 86.0085C146.073 86.2169 146.149 86.3814 146.3 86.5021C146.452 86.6229 146.689 86.7235 147.011 86.804L147.82 87.0028C148.308 87.1212 148.671 87.3023 148.911 87.5462C149.15 87.7876 149.269 88.099 149.269 88.4801C149.269 88.7926 149.179 89.072 148.999 89.3182C148.822 89.5644 148.573 89.7585 148.254 89.9006C147.934 90.0426 147.562 90.1136 147.138 90.1136C146.582 90.1136 146.122 89.9929 145.757 89.7514C145.393 89.5099 145.162 89.1572 145.065 88.6932L145.86 88.4943C145.936 88.7879 146.079 89.008 146.29 89.1548C146.503 89.3016 146.781 89.375 147.124 89.375C147.515 89.375 147.825 89.2921 148.055 89.1264C148.287 88.9583 148.403 88.7571 148.403 88.5227C148.403 88.3333 148.336 88.1747 148.204 88.0469C148.071 87.9167 147.868 87.8196 147.593 87.7557L146.684 87.5426C146.184 87.4242 145.817 87.2408 145.583 86.9922C145.351 86.7412 145.235 86.4276 145.235 86.0511C145.235 85.7434 145.321 85.4711 145.494 85.2344C145.67 84.9976 145.907 84.8118 146.208 84.6768C146.511 84.5419 146.854 84.4744 147.238 84.4744C147.778 84.4744 148.201 84.5928 148.509 84.8295C148.819 85.0663 149.04 85.3788 149.17 85.767ZM154.394 85.767L153.642 85.9801C153.594 85.8546 153.524 85.7327 153.432 85.6143C153.342 85.4936 153.219 85.3942 153.063 85.3161C152.906 85.2379 152.706 85.1989 152.463 85.1989C152.129 85.1989 151.851 85.2758 151.628 85.4297C151.408 85.5812 151.298 85.7741 151.298 86.0085C151.298 86.2169 151.374 86.3814 151.525 86.5021C151.677 86.6229 151.913 86.7235 152.235 86.804L153.045 87.0028C153.533 87.1212 153.896 87.3023 154.135 87.5462C154.374 87.7876 154.494 88.099 154.494 88.4801C154.494 88.7926 154.404 89.072 154.224 89.3182C154.046 89.5644 153.798 89.7585 153.478 89.9006C153.159 90.0426 152.787 90.1136 152.363 90.1136C151.807 90.1136 151.346 89.9929 150.982 89.7514C150.617 89.5099 150.386 89.1572 150.289 88.6932L151.085 88.4943C151.16 88.7879 151.304 89.008 151.514 89.1548C151.727 89.3016 152.006 89.375 152.349 89.375C152.74 89.375 153.05 89.2921 153.279 89.1264C153.511 88.9583 153.627 88.7571 153.627 88.5227C153.627 88.3333 153.561 88.1747 153.428 88.0469C153.296 87.9167 153.092 87.8196 152.818 87.7557L151.909 87.5426C151.409 87.4242 151.042 87.2408 150.808 86.9922C150.576 86.7412 150.46 86.4276 150.46 86.0511C150.46 85.7434 150.546 85.4711 150.719 85.2344C150.894 84.9976 151.132 84.8118 151.433 84.6768C151.736 84.5419 152.079 84.4744 152.463 84.4744C153.002 84.4744 153.426 84.5928 153.734 84.8295C154.044 85.0663 154.264 85.3788 154.394 85.767ZM160.784 90.1136C160.291 90.1136 159.859 89.9964 159.488 89.7621C159.118 89.5277 158.829 89.1998 158.621 88.7784C158.415 88.357 158.312 87.8646 158.312 87.3011C158.312 86.733 158.415 86.237 158.621 85.8132C158.829 85.3894 159.118 85.0604 159.488 84.826C159.859 84.5916 160.291 84.4744 160.784 84.4744C161.276 84.4744 161.707 84.5916 162.076 84.826C162.448 85.0604 162.737 85.3894 162.943 85.8132C163.151 86.237 163.255 86.733 163.255 87.3011C163.255 87.8646 163.151 88.357 162.943 88.7784C162.737 89.1998 162.448 89.5277 162.076 89.7621C161.707 89.9964 161.276 90.1136 160.784 90.1136ZM160.784 89.3608C161.158 89.3608 161.466 89.2649 161.707 89.0732C161.949 88.8814 162.127 88.6293 162.243 88.3168C162.359 88.0043 162.417 87.6657 162.417 87.3011C162.417 86.9366 162.359 86.5968 162.243 86.282C162.127 85.9671 161.949 85.7126 161.707 85.5185C161.466 85.3243 161.158 85.2273 160.784 85.2273C160.41 85.2273 160.102 85.3243 159.86 85.5185C159.619 85.7126 159.44 85.9671 159.324 86.282C159.208 86.5968 159.15 86.9366 159.15 87.3011C159.15 87.6657 159.208 88.0043 159.324 88.3168C159.44 88.6293 159.619 88.8814 159.86 89.0732C160.102 89.2649 160.41 89.3608 160.784 89.3608ZM166.964 84.5455V85.2557H164.023V84.5455H166.964ZM164.904 90V83.7926C164.904 83.4801 164.977 83.2197 165.124 83.0114C165.271 82.803 165.461 82.6468 165.696 82.5426C165.93 82.4384 166.178 82.3864 166.438 82.3864C166.644 82.3864 166.812 82.4029 166.942 82.4361C167.073 82.4692 167.17 82.5 167.233 82.5284L166.992 83.2528C166.949 83.2386 166.89 83.2209 166.814 83.1996C166.741 83.1783 166.644 83.1676 166.523 83.1676C166.246 83.1676 166.046 83.2375 165.923 83.3771C165.802 83.5168 165.742 83.7216 165.742 83.9915V90H164.904ZM171.064 90V82.7273H173.607C174.114 82.7273 174.531 82.8149 174.86 82.9901C175.19 83.1629 175.435 83.3961 175.596 83.6896C175.757 83.9808 175.837 84.304 175.837 84.6591C175.837 84.9716 175.781 85.2296 175.67 85.4332C175.561 85.6368 175.417 85.7978 175.237 85.9162C175.059 86.0346 174.866 86.1222 174.658 86.179V86.25C174.881 86.2642 175.104 86.3423 175.329 86.4844C175.554 86.6264 175.742 86.83 175.894 87.0952C176.045 87.3603 176.121 87.6847 176.121 88.0682C176.121 88.4328 176.038 88.7607 175.873 89.0518C175.707 89.343 175.445 89.5739 175.088 89.7443C174.73 89.9148 174.265 90 173.692 90H171.064ZM171.945 89.2188H173.692C174.267 89.2188 174.676 89.1075 174.917 88.8849C175.161 88.66 175.283 88.3878 175.283 88.0682C175.283 87.822 175.22 87.5947 175.095 87.3864C174.969 87.1757 174.791 87.0076 174.559 86.8821C174.327 86.7543 174.052 86.6903 173.735 86.6903H171.945V89.2188ZM171.945 85.9233H173.578C173.844 85.9233 174.083 85.8712 174.296 85.767C174.511 85.6629 174.682 85.5161 174.807 85.3267C174.935 85.1373 174.999 84.9148 174.999 84.6591C174.999 84.3395 174.888 84.0684 174.665 83.8459C174.443 83.621 174.09 83.5085 173.607 83.5085H171.945V85.9233ZM179.67 90.1136C179.178 90.1136 178.746 89.9964 178.374 89.7621C178.005 89.5277 177.716 89.1998 177.508 88.7784C177.302 88.357 177.199 87.8646 177.199 87.3011C177.199 86.733 177.302 86.237 177.508 85.8132C177.716 85.3894 178.005 85.0604 178.374 84.826C178.746 84.5916 179.178 84.4744 179.67 84.4744C180.163 84.4744 180.594 84.5916 180.963 84.826C181.335 85.0604 181.624 85.3894 181.83 85.8132C182.038 86.237 182.142 86.733 182.142 87.3011C182.142 87.8646 182.038 88.357 181.83 88.7784C181.624 89.1998 181.335 89.5277 180.963 89.7621C180.594 89.9964 180.163 90.1136 179.67 90.1136ZM179.67 89.3608C180.045 89.3608 180.352 89.2649 180.594 89.0732C180.835 88.8814 181.014 88.6293 181.13 88.3168C181.246 88.0043 181.304 87.6657 181.304 87.3011C181.304 86.9366 181.246 86.5968 181.13 86.282C181.014 85.9671 180.835 85.7126 180.594 85.5185C180.352 85.3243 180.045 85.2273 179.67 85.2273C179.296 85.2273 178.989 85.3243 178.747 85.5185C178.506 85.7126 178.327 85.9671 178.211 86.282C178.095 86.5968 178.037 86.9366 178.037 87.3011C178.037 87.6657 178.095 88.0043 178.211 88.3168C178.327 88.6293 178.506 88.8814 178.747 89.0732C178.989 89.2649 179.296 89.3608 179.67 89.3608ZM185.794 84.5455V85.2557H182.967V84.5455H185.794ZM183.791 83.2386H184.629V88.4375C184.629 88.6742 184.663 88.8518 184.732 88.9702C184.803 89.0862 184.893 89.1643 185.002 89.2045C185.113 89.2424 185.23 89.2614 185.353 89.2614C185.445 89.2614 185.521 89.2566 185.58 89.2472C185.64 89.2353 185.687 89.2259 185.722 89.2188L185.893 89.9716C185.836 89.9929 185.757 90.0142 185.655 90.0355C185.553 90.0592 185.424 90.071 185.268 90.071C185.031 90.071 184.799 90.0201 184.572 89.9183C184.347 89.8165 184.16 89.6615 184.011 89.4531C183.864 89.2448 183.791 88.982 183.791 88.6648V83.2386ZM190.82 85.767L190.067 85.9801C190.02 85.8546 189.95 85.7327 189.858 85.6143C189.768 85.4936 189.645 85.3942 189.488 85.3161C189.332 85.2379 189.132 85.1989 188.888 85.1989C188.555 85.1989 188.276 85.2758 188.054 85.4297C187.834 85.5812 187.724 85.7741 187.724 86.0085C187.724 86.2169 187.799 86.3814 187.951 86.5021C188.102 86.6229 188.339 86.7235 188.661 86.804L189.471 87.0028C189.958 87.1212 190.322 87.3023 190.561 87.5462C190.8 87.7876 190.92 88.099 190.92 88.4801C190.92 88.7926 190.83 89.072 190.65 89.3182C190.472 89.5644 190.224 89.7585 189.904 89.9006C189.584 90.0426 189.213 90.1136 188.789 90.1136C188.233 90.1136 187.772 89.9929 187.407 89.7514C187.043 89.5099 186.812 89.1572 186.715 88.6932L187.51 88.4943C187.586 88.7879 187.729 89.008 187.94 89.1548C188.153 89.3016 188.431 89.375 188.775 89.375C189.165 89.375 189.475 89.2921 189.705 89.1264C189.937 88.9583 190.053 88.7571 190.053 88.5227C190.053 88.3333 189.987 88.1747 189.854 88.0469C189.722 87.9167 189.518 87.8196 189.243 87.7557L188.334 87.5426C187.835 87.4242 187.468 87.2408 187.233 86.9922C187.001 86.7412 186.885 86.4276 186.885 86.0511C186.885 85.7434 186.972 85.4711 187.145 85.2344C187.32 84.9976 187.558 84.8118 187.858 84.6768C188.162 84.5419 188.505 84.4744 188.888 84.4744C189.428 84.4744 189.852 84.5928 190.16 84.8295C190.47 85.0663 190.69 85.3788 190.82 85.767Z" fill="black"/>
<rect x="255" y="221" width="156" height="114" rx="5" fill="#F6F6F6"/>
<mask id="path-15-inside-3_25_186" fill="white">
<path d="M255 226C255 223.239 257.239 221 260 221H406C408.761 221 411 223.239 411 226V249H255V226Z"/>
</mask>
<path d="M255 226C255 223.239 257.239 221 260 221H406C408.761 221 411 223.239 411 226V249H255V226Z" fill="#F6F6F6"/>
<path d="M254 226C254 222.686 256.686 220 260 220H406C409.314 220 412 222.686 412 226H410C410 223.791 408.209 222 406 222H260C257.791 222 256 223.791 256 226H254ZM411 249H255H411ZM254 249V226C254 222.686 256.686 220 260 220V222C257.791 222 256 223.791 256 226V249H254ZM406 220C409.314 220 412 222.686 412 226V249H410V226C410 223.791 408.209 222 406 222V220Z" fill="black" mask="url(#path-15-inside-3_25_186)"/>
<rect x="81" y="221" width="156" height="114" rx="5" fill="#F6F6F6"/>
<mask id="path-18-inside-4_25_186" fill="white">
<path d="M81 226C81 223.239 83.2386 221 86 221H232C234.761 221 237 223.239 237 226V249H81V226Z"/>
</mask>
<path d="M81 226C81 223.239 83.2386 221 86 221H232C234.761 221 237 223.239 237 226V249H81V226Z" fill="#F6F6F6"/>
<path d="M80 226C80 222.686 82.6863 220 86 220H232C235.314 220 238 222.686 238 226H236C236 223.791 234.209 222 232 222H86C83.7909 222 82 223.791 82 226H80ZM237 249H81H237ZM80 249V226C80 222.686 82.6863 220 86 220V222C83.7909 222 82 223.791 82 226V249H80ZM232 220C235.314 220 238 222.686 238 226V249H236V226C236 223.791 234.209 222 232 222V220Z" fill="black" mask="url(#path-18-inside-4_25_186)"/>
<path d="M87.2557 231.727H88.2642L90.2812 235.122H90.3665L92.3835 231.727H93.392L90.7642 236.003V239H89.8835V236.003L87.2557 231.727ZM95.8619 239.114C95.3694 239.114 94.9374 238.996 94.5657 238.762C94.1964 238.528 93.9076 238.2 93.6992 237.778C93.4933 237.357 93.3903 236.865 93.3903 236.301C93.3903 235.733 93.4933 235.237 93.6992 234.813C93.9076 234.389 94.1964 234.06 94.5657 233.826C94.9374 233.592 95.3694 233.474 95.8619 233.474C96.3543 233.474 96.7852 233.592 97.1545 233.826C97.5262 234.06 97.815 234.389 98.021 234.813C98.2293 235.237 98.3335 235.733 98.3335 236.301C98.3335 236.865 98.2293 237.357 98.021 237.778C97.815 238.2 97.5262 238.528 97.1545 238.762C96.7852 238.996 96.3543 239.114 95.8619 239.114ZM95.8619 238.361C96.2359 238.361 96.5437 238.265 96.7852 238.073C97.0266 237.881 97.2054 237.629 97.3214 237.317C97.4374 237.004 97.4954 236.666 97.4954 236.301C97.4954 235.937 97.4374 235.597 97.3214 235.282C97.2054 234.967 97.0266 234.713 96.7852 234.518C96.5437 234.324 96.2359 234.227 95.8619 234.227C95.4878 234.227 95.18 234.324 94.9386 234.518C94.6971 234.713 94.5183 234.967 94.4023 235.282C94.2863 235.597 94.2283 235.937 94.2283 236.301C94.2283 236.666 94.2863 237.004 94.4023 237.317C94.5183 237.629 94.6971 237.881 94.9386 238.073C95.18 238.265 95.4878 238.361 95.8619 238.361ZM103.05 236.77V233.545H103.888V239H103.05V238.077H102.993C102.866 238.354 102.667 238.589 102.397 238.783C102.127 238.975 101.786 239.071 101.374 239.071C101.033 239.071 100.73 238.996 100.465 238.847C100.2 238.696 99.9915 238.469 99.84 238.165C99.6885 237.86 99.6127 237.475 99.6127 237.011V233.545H100.451V236.955C100.451 237.352 100.562 237.67 100.785 237.906C101.01 238.143 101.296 238.261 101.644 238.261C101.852 238.261 102.064 238.208 102.28 238.102C102.497 237.995 102.68 237.832 102.827 237.612C102.976 237.391 103.05 237.111 103.05 236.77ZM106.673 238.006L106.616 238.389C106.576 238.659 106.515 238.948 106.432 239.256C106.351 239.563 106.267 239.853 106.18 240.126C106.092 240.398 106.02 240.615 105.963 240.776H105.324C105.355 240.624 105.395 240.424 105.445 240.175C105.494 239.927 105.544 239.649 105.594 239.341C105.646 239.036 105.688 238.723 105.722 238.403L105.764 238.006H106.673ZM111.45 239H110.527L113.198 231.727H114.107L116.777 239H115.854L113.681 232.878H113.624L111.45 239ZM111.791 236.159H115.513V236.94H111.791V236.159ZM118.791 231.727V239H117.91V231.727H118.791ZM121.693 238.006L121.636 238.389C121.596 238.659 121.534 238.948 121.451 239.256C121.371 239.563 121.287 239.853 121.199 240.126C121.112 240.398 121.039 240.615 120.983 240.776H120.343C120.374 240.624 120.414 240.424 120.464 240.175C120.514 239.927 120.564 239.649 120.613 239.341C120.665 239.036 120.708 238.723 120.741 238.403L120.784 238.006H121.693ZM127.663 239.128C127.318 239.128 127.004 239.063 126.722 238.933C126.44 238.8 126.217 238.609 126.051 238.361C125.885 238.11 125.802 237.807 125.802 237.452C125.802 237.139 125.864 236.886 125.987 236.692C126.11 236.495 126.275 236.341 126.481 236.23C126.687 236.119 126.914 236.036 127.162 235.982C127.413 235.925 127.666 235.88 127.919 235.847C128.25 235.804 128.519 235.772 128.725 235.751C128.933 235.727 129.085 235.688 129.18 235.634C129.277 235.579 129.325 235.484 129.325 235.349V235.321C129.325 234.971 129.229 234.698 129.037 234.504C128.848 234.31 128.56 234.213 128.175 234.213C127.774 234.213 127.461 234.301 127.233 234.476C127.006 234.651 126.846 234.838 126.754 235.037L125.959 234.753C126.101 234.421 126.29 234.163 126.527 233.979C126.766 233.792 127.026 233.661 127.308 233.588C127.592 233.512 127.872 233.474 128.146 233.474C128.321 233.474 128.523 233.496 128.75 233.538C128.979 233.579 129.201 233.663 129.414 233.79C129.629 233.918 129.808 234.111 129.95 234.369C130.092 234.627 130.163 234.973 130.163 235.406V239H129.325V238.261H129.282C129.226 238.38 129.131 238.506 128.998 238.641C128.866 238.776 128.689 238.891 128.469 238.986C128.249 239.08 127.98 239.128 127.663 239.128ZM127.791 238.375C128.122 238.375 128.402 238.31 128.629 238.18C128.859 238.049 129.032 237.881 129.148 237.675C129.266 237.469 129.325 237.253 129.325 237.026V236.259C129.29 236.301 129.211 236.34 129.091 236.376C128.972 236.409 128.835 236.438 128.679 236.464C128.525 236.488 128.375 236.509 128.228 236.528C128.083 236.545 127.966 236.559 127.876 236.571C127.658 236.599 127.455 236.646 127.265 236.71C127.078 236.771 126.927 236.865 126.811 236.99C126.697 237.113 126.64 237.281 126.64 237.494C126.64 237.786 126.748 238.006 126.964 238.155C127.181 238.302 127.457 238.375 127.791 238.375ZM132.531 235.719V239H131.693V233.545H132.502V234.398H132.574C132.701 234.121 132.895 233.898 133.156 233.73C133.416 233.56 133.752 233.474 134.164 233.474C134.534 233.474 134.857 233.55 135.134 233.702C135.411 233.851 135.626 234.078 135.78 234.384C135.934 234.687 136.011 235.07 136.011 235.534V239H135.173V235.591C135.173 235.162 135.062 234.829 134.839 234.589C134.617 234.348 134.311 234.227 133.923 234.227C133.655 234.227 133.416 234.285 133.206 234.401C132.997 234.517 132.833 234.687 132.712 234.909C132.591 235.132 132.531 235.402 132.531 235.719ZM139.602 239.114C139.148 239.114 138.746 238.999 138.398 238.769C138.05 238.537 137.778 238.21 137.581 237.789C137.385 237.365 137.287 236.865 137.287 236.287C137.287 235.714 137.385 235.217 137.581 234.795C137.778 234.374 138.051 234.049 138.402 233.819C138.752 233.589 139.157 233.474 139.616 233.474C139.971 233.474 140.252 233.534 140.458 233.652C140.666 233.768 140.825 233.901 140.934 234.05C141.045 234.196 141.131 234.317 141.193 234.412H141.264V231.727H142.102V239H141.292V238.162H141.193C141.131 238.261 141.044 238.387 140.93 238.538C140.817 238.687 140.654 238.821 140.444 238.94C140.233 239.056 139.952 239.114 139.602 239.114ZM139.716 238.361C140.052 238.361 140.336 238.273 140.568 238.098C140.8 237.92 140.976 237.675 141.097 237.363C141.218 237.048 141.278 236.685 141.278 236.273C141.278 235.866 141.219 235.509 141.101 235.204C140.982 234.896 140.807 234.657 140.575 234.487C140.343 234.314 140.057 234.227 139.716 234.227C139.361 234.227 139.065 234.318 138.828 234.501C138.594 234.681 138.417 234.926 138.299 235.236C138.183 235.544 138.125 235.889 138.125 236.273C138.125 236.661 138.184 237.014 138.302 237.331C138.423 237.646 138.601 237.897 138.835 238.084C139.072 238.268 139.365 238.361 139.716 238.361ZM152.816 235.364C152.816 236.131 152.677 236.794 152.4 237.352C152.123 237.911 151.743 238.342 151.26 238.645C150.778 238.948 150.226 239.099 149.606 239.099C148.985 239.099 148.434 238.948 147.951 238.645C147.468 238.342 147.088 237.911 146.811 237.352C146.534 236.794 146.395 236.131 146.395 235.364C146.395 234.597 146.534 233.934 146.811 233.375C147.088 232.816 147.468 232.385 147.951 232.082C148.434 231.779 148.985 231.628 149.606 231.628C150.226 231.628 150.778 231.779 151.26 232.082C151.743 232.385 152.123 232.816 152.4 233.375C152.677 233.934 152.816 234.597 152.816 235.364ZM151.964 235.364C151.964 234.734 151.858 234.202 151.648 233.769C151.439 233.336 151.156 233.008 150.799 232.786C150.444 232.563 150.046 232.452 149.606 232.452C149.165 232.452 148.766 232.563 148.409 232.786C148.054 233.008 147.771 233.336 147.56 233.769C147.352 234.202 147.248 234.734 147.248 235.364C147.248 235.993 147.352 236.525 147.56 236.958C147.771 237.391 148.054 237.719 148.409 237.942C148.766 238.164 149.165 238.276 149.606 238.276C150.046 238.276 150.444 238.164 150.799 237.942C151.156 237.719 151.439 237.391 151.648 236.958C151.858 236.525 151.964 235.993 151.964 235.364ZM157.621 236.77V233.545H158.459V239H157.621V238.077H157.564C157.436 238.354 157.237 238.589 156.967 238.783C156.697 238.975 156.356 239.071 155.944 239.071C155.604 239.071 155.3 238.996 155.035 238.847C154.77 238.696 154.562 238.469 154.41 238.165C154.259 237.86 154.183 237.475 154.183 237.011V233.545H155.021V236.955C155.021 237.352 155.132 237.67 155.355 237.906C155.58 238.143 155.866 238.261 156.214 238.261C156.423 238.261 156.635 238.208 156.85 238.102C157.068 237.995 157.25 237.832 157.397 237.612C157.546 237.391 157.621 237.111 157.621 236.77ZM159.994 239V233.545H160.803V234.369H160.86C160.96 234.099 161.139 233.88 161.4 233.712C161.66 233.544 161.954 233.46 162.281 233.46C162.342 233.46 162.419 233.461 162.511 233.464C162.604 233.466 162.674 233.47 162.721 233.474V234.327C162.692 234.32 162.627 234.309 162.526 234.295C162.426 234.278 162.321 234.27 162.21 234.27C161.944 234.27 161.708 234.326 161.499 234.437C161.293 234.546 161.13 234.697 161.009 234.891C160.891 235.083 160.832 235.302 160.832 235.548V239H159.994ZM168.885 239H166.64V231.727H168.984C169.69 231.727 170.293 231.873 170.795 232.164C171.297 232.453 171.682 232.868 171.949 233.411C172.217 233.95 172.351 234.597 172.351 235.349C172.351 236.107 172.216 236.759 171.946 237.306C171.676 237.851 171.283 238.27 170.767 238.563C170.251 238.854 169.623 239 168.885 239ZM167.521 238.219H168.828C169.429 238.219 169.928 238.103 170.323 237.871C170.718 237.639 171.013 237.308 171.207 236.88C171.401 236.451 171.498 235.941 171.498 235.349C171.498 234.762 171.403 234.257 171.211 233.833C171.019 233.407 170.733 233.08 170.351 232.853C169.97 232.623 169.496 232.509 168.927 232.509H167.521V238.219ZM173.714 239V233.545H174.552V239H173.714ZM174.14 232.636C173.977 232.636 173.836 232.581 173.718 232.469C173.602 232.358 173.544 232.224 173.544 232.068C173.544 231.912 173.602 231.778 173.718 231.667C173.836 231.556 173.977 231.5 174.14 231.5C174.304 231.5 174.443 231.556 174.559 231.667C174.678 231.778 174.737 231.912 174.737 232.068C174.737 232.224 174.678 232.358 174.559 232.469C174.443 232.581 174.304 232.636 174.14 232.636ZM178.289 241.159C177.884 241.159 177.536 241.107 177.245 241.003C176.954 240.901 176.711 240.766 176.517 240.598C176.325 240.432 176.173 240.255 176.059 240.065L176.727 239.597C176.802 239.696 176.898 239.81 177.014 239.938C177.13 240.068 177.289 240.18 177.49 240.275C177.694 240.372 177.96 240.42 178.289 240.42C178.729 240.42 179.093 240.314 179.379 240.101C179.666 239.888 179.809 239.554 179.809 239.099V237.991H179.738C179.676 238.091 179.589 238.214 179.475 238.361C179.364 238.505 179.203 238.634 178.992 238.748C178.784 238.859 178.502 238.915 178.147 238.915C177.707 238.915 177.311 238.811 176.961 238.602C176.613 238.394 176.337 238.091 176.134 237.693C175.932 237.295 175.832 236.812 175.832 236.244C175.832 235.686 175.93 235.199 176.126 234.785C176.323 234.368 176.596 234.046 176.947 233.819C177.297 233.589 177.702 233.474 178.161 233.474C178.516 233.474 178.798 233.534 179.006 233.652C179.217 233.768 179.378 233.901 179.489 234.05C179.603 234.196 179.691 234.317 179.752 234.412H179.837V233.545H180.647V239.156C180.647 239.625 180.54 240.006 180.327 240.3C180.117 240.596 179.833 240.812 179.475 240.95C179.12 241.089 178.725 241.159 178.289 241.159ZM178.261 238.162C178.597 238.162 178.881 238.085 179.113 237.931C179.345 237.777 179.521 237.556 179.642 237.267C179.763 236.978 179.823 236.633 179.823 236.23C179.823 235.837 179.764 235.49 179.646 235.19C179.527 234.889 179.352 234.653 179.12 234.483C178.888 234.312 178.602 234.227 178.261 234.227C177.906 234.227 177.61 234.317 177.373 234.497C177.138 234.677 176.962 234.919 176.844 235.222C176.728 235.525 176.67 235.861 176.67 236.23C176.67 236.609 176.729 236.944 176.847 237.235C176.968 237.524 177.146 237.751 177.38 237.917C177.617 238.08 177.91 238.162 178.261 238.162ZM182.181 239V233.545H183.019V239H182.181ZM182.607 232.636C182.444 232.636 182.303 232.581 182.185 232.469C182.069 232.358 182.011 232.224 182.011 232.068C182.011 231.912 182.069 231.778 182.185 231.667C182.303 231.556 182.444 231.5 182.607 231.5C182.771 231.5 182.91 231.556 183.026 231.667C183.145 231.778 183.204 231.912 183.204 232.068C183.204 232.224 183.145 232.358 183.026 232.469C182.91 232.581 182.771 232.636 182.607 232.636ZM186.926 233.545V234.256H184.1V233.545H186.926ZM184.923 232.239H185.762V237.438C185.762 237.674 185.796 237.852 185.865 237.97C185.936 238.086 186.026 238.164 186.134 238.205C186.246 238.242 186.363 238.261 186.486 238.261C186.578 238.261 186.654 238.257 186.713 238.247C186.772 238.235 186.82 238.226 186.855 238.219L187.026 238.972C186.969 238.993 186.89 239.014 186.788 239.036C186.686 239.059 186.557 239.071 186.401 239.071C186.164 239.071 185.932 239.02 185.705 238.918C185.48 238.817 185.293 238.661 185.144 238.453C184.997 238.245 184.923 237.982 184.923 237.665V232.239ZM189.792 239.128C189.446 239.128 189.133 239.063 188.851 238.933C188.569 238.8 188.346 238.609 188.18 238.361C188.014 238.11 187.931 237.807 187.931 237.452C187.931 237.139 187.993 236.886 188.116 236.692C188.239 236.495 188.404 236.341 188.61 236.23C188.816 236.119 189.043 236.036 189.291 235.982C189.542 235.925 189.794 235.88 190.048 235.847C190.379 235.804 190.648 235.772 190.854 235.751C191.062 235.727 191.214 235.688 191.308 235.634C191.405 235.579 191.454 235.484 191.454 235.349V235.321C191.454 234.971 191.358 234.698 191.166 234.504C190.977 234.31 190.689 234.213 190.303 234.213C189.903 234.213 189.59 234.301 189.362 234.476C189.135 234.651 188.975 234.838 188.883 235.037L188.088 234.753C188.23 234.421 188.419 234.163 188.656 233.979C188.895 233.792 189.155 233.661 189.437 233.588C189.721 233.512 190 233.474 190.275 233.474C190.45 233.474 190.651 233.496 190.879 233.538C191.108 233.579 191.33 233.663 191.543 233.79C191.758 233.918 191.937 234.111 192.079 234.369C192.221 234.627 192.292 234.973 192.292 235.406V239H191.454V238.261H191.411C191.355 238.38 191.26 238.506 191.127 238.641C190.995 238.776 190.818 238.891 190.598 238.986C190.378 239.08 190.109 239.128 189.792 239.128ZM189.92 238.375C190.251 238.375 190.531 238.31 190.758 238.18C190.988 238.049 191.16 237.881 191.276 237.675C191.395 237.469 191.454 237.253 191.454 237.026V236.259C191.419 236.301 191.34 236.34 191.22 236.376C191.101 236.409 190.964 236.438 190.808 236.464C190.654 236.488 190.503 236.509 190.357 236.528C190.212 236.545 190.095 236.559 190.005 236.571C189.787 236.599 189.584 236.646 189.394 236.71C189.207 236.771 189.056 236.865 188.94 236.99C188.826 237.113 188.769 237.281 188.769 237.494C188.769 237.786 188.877 238.006 189.093 238.155C189.31 238.302 189.586 238.375 189.92 238.375ZM194.66 231.727V239H193.822V231.727H194.66ZM200.442 239L198.453 231.727H199.348L200.868 237.651H200.939L202.487 231.727H203.482L205.03 237.651H205.101L206.621 231.727H207.516L205.527 239H204.618L203.013 233.205H202.956L201.351 239H200.442ZM210.208 239.114C209.715 239.114 209.283 238.996 208.911 238.762C208.542 238.528 208.253 238.2 208.045 237.778C207.839 237.357 207.736 236.865 207.736 236.301C207.736 235.733 207.839 235.237 208.045 234.813C208.253 234.389 208.542 234.06 208.911 233.826C209.283 233.592 209.715 233.474 210.208 233.474C210.7 233.474 211.131 233.592 211.5 233.826C211.872 234.06 212.161 234.389 212.367 234.813C212.575 235.237 212.679 235.733 212.679 236.301C212.679 236.865 212.575 237.357 212.367 237.778C212.161 238.2 211.872 238.528 211.5 238.762C211.131 238.996 210.7 239.114 210.208 239.114ZM210.208 238.361C210.582 238.361 210.889 238.265 211.131 238.073C211.372 237.881 211.551 237.629 211.667 237.317C211.783 237.004 211.841 236.666 211.841 236.301C211.841 235.937 211.783 235.597 211.667 235.282C211.551 234.967 211.372 234.713 211.131 234.518C210.889 234.324 210.582 234.227 210.208 234.227C209.834 234.227 209.526 234.324 209.284 234.518C209.043 234.713 208.864 234.967 208.748 235.282C208.632 235.597 208.574 235.937 208.574 236.301C208.574 236.666 208.632 237.004 208.748 237.317C208.864 237.629 209.043 237.881 209.284 238.073C209.526 238.265 209.834 238.361 210.208 238.361ZM213.958 239V233.545H214.768V234.369H214.825C214.924 234.099 215.104 233.88 215.365 233.712C215.625 233.544 215.919 233.46 216.245 233.46C216.307 233.46 216.384 233.461 216.476 233.464C216.569 233.466 216.638 233.47 216.686 233.474V234.327C216.657 234.32 216.592 234.309 216.49 234.295C216.391 234.278 216.286 234.27 216.174 234.27C215.909 234.27 215.672 234.326 215.464 234.437C215.258 234.546 215.095 234.697 214.974 234.891C214.856 235.083 214.797 235.302 214.797 235.548V239H213.958ZM218.517 231.727V239H217.679V231.727H218.517ZM222.112 239.114C221.657 239.114 221.256 238.999 220.908 238.769C220.56 238.537 220.288 238.21 220.091 237.789C219.895 237.365 219.797 236.865 219.797 236.287C219.797 235.714 219.895 235.217 220.091 234.795C220.288 234.374 220.561 234.049 220.912 233.819C221.262 233.589 221.667 233.474 222.126 233.474C222.481 233.474 222.762 233.534 222.968 233.652C223.176 233.768 223.335 233.901 223.444 234.05C223.555 234.196 223.641 234.317 223.703 234.412H223.774V231.727H224.612V239H223.802V238.162H223.703C223.641 238.261 223.554 238.387 223.44 238.538C223.326 238.687 223.164 238.821 222.953 238.94C222.743 239.056 222.462 239.114 222.112 239.114ZM222.225 238.361C222.562 238.361 222.846 238.273 223.078 238.098C223.31 237.92 223.486 237.675 223.607 237.363C223.728 237.048 223.788 236.685 223.788 236.273C223.788 235.866 223.729 235.509 223.61 235.204C223.492 234.896 223.317 234.657 223.085 234.487C222.853 234.314 222.566 234.227 222.225 234.227C221.87 234.227 221.574 234.318 221.338 234.501C221.103 234.681 220.927 234.926 220.809 235.236C220.693 235.544 220.635 235.889 220.635 236.273C220.635 236.661 220.694 237.014 220.812 237.331C220.933 237.646 221.11 237.897 221.345 238.084C221.582 238.268 221.875 238.361 222.225 238.361Z" fill="black"/>
</g>
<rect x="0.5" y="0.5" width="489" height="299" stroke="black"/>
<defs>
<clipPath id="clip0_25_186">
<rect width="490" height="300" fill="white"/>
</clipPath>
</defs>
</svg>
